<svg version="1.1" id="Layer_1" xmlns="http://www.w3.org/2000/svg" xmlns:xlink="http://www.w3.org/1999/xlink" x="0px"
     y="0px"
     width="100%" viewBox="0 0 2500 500" enable-background="new 0 0 2500 500" xml:space="preserve">
<path fill="none" opacity="1.000000" stroke="none"
      d="
M1508.000000,501.000000
	C1005.717590,501.000000 503.435120,501.000000 1.076351,501.000000
	C1.076351,334.401154 1.076351,167.802261 1.076351,1.000000
	C654.032715,1.000000 1307.065430,1.000000 1960.894043,1.315112
	C1961.296753,2.446792 1960.903564,3.263361 1960.310181,4.149991
	C1959.765747,4.651060 1959.421509,5.082068 1958.745361,5.739853
	C1957.779907,6.670169 1957.146606,7.373709 1956.313110,8.146845
	C1955.768677,8.646387 1955.424316,9.076334 1954.781494,9.765953
	C1953.492310,11.376562 1952.501587,12.727498 1951.253174,14.226236
	C1949.357178,16.084393 1947.718750,17.794746 1945.819580,19.738228
	C1945.370117,20.598339 1945.181396,21.225325 1944.676025,22.003033
	C1941.189331,25.767143 1938.019287,29.380533 1934.482910,33.001091
	C1933.580444,33.698570 1933.044434,34.388882 1932.244873,35.236740
	C1929.347412,38.098091 1926.713745,40.801891 1923.809570,43.743622
	C1922.995605,44.973461 1922.452026,45.965374 1921.949951,46.977222
	C1921.991211,46.997162 1921.924805,46.933990 1921.637329,47.031036
	C1921.230835,47.702679 1921.111816,48.277271 1920.679565,48.987846
	C1912.528198,57.746872 1904.689941,66.369919 1896.503906,74.998459
	C1895.605835,75.362785 1895.055420,75.721611 1894.378662,76.077927
	C1894.072021,76.170189 1894.014404,76.314102 1893.794678,76.756454
	C1892.843750,78.029503 1892.177490,79.053246 1891.248047,80.232956
	C1888.682983,82.761658 1886.381104,85.134392 1883.794678,87.756462
	C1882.843872,89.029533 1882.177490,90.053276 1881.283447,91.182610
	C1880.397461,92.027153 1879.738892,92.766113 1878.819580,93.738220
	C1878.370117,94.598381 1878.181396,95.225395 1877.684570,95.984024
	C1875.867432,97.741737 1874.358276,99.367836 1872.482666,101.001137
	C1871.580322,101.698639 1871.044434,102.388939 1870.245850,103.235474
	C1867.681763,105.763580 1865.380493,108.135460 1862.791870,110.755127
	C1861.840576,112.027664 1861.176514,113.052399 1860.385132,114.074203
	C1860.075928,114.165649 1860.016724,114.310234 1859.819580,114.738190
	C1859.370117,115.598312 1859.181396,116.225288 1858.678833,116.988464
	C1850.527100,125.747482 1842.689209,134.370300 1834.548706,142.997253
	C1833.808838,143.309097 1833.371582,143.616776 1832.963623,143.962952
	C1832.993042,144.001450 1832.946777,143.917358 1832.622070,144.049896
	C1831.701050,145.147675 1831.104980,146.112885 1830.245239,147.235809
	C1827.347656,150.097748 1824.713745,152.801987 1821.781494,155.765930
	C1820.492310,157.376556 1819.501587,158.727493 1818.311279,160.148132
	C1817.767944,160.646896 1817.424072,161.075974 1816.819580,161.738251
	C1816.370117,162.598541 1816.181396,163.225616 1815.676758,163.990448
	C1807.523560,172.750092 1799.686279,181.372009 1791.482666,190.001129
	C1790.580322,190.698639 1790.044434,191.388947 1789.245850,192.235504
	C1786.681763,194.763611 1784.380493,197.135452 1781.791870,199.755081
	C1780.840454,201.027618 1780.176392,202.052353 1779.248047,203.233932
	C1776.348755,206.096283 1773.713989,208.801788 1770.791870,211.755081
	C1769.840454,213.027634 1769.176514,214.052368 1768.249023,215.232605
	C1765.683350,217.761139 1763.381226,220.134171 1760.791870,222.755051
	C1759.840454,224.027649 1759.176514,225.052383 1758.269531,226.202866
	C1757.044556,227.387421 1756.062378,228.446228 1754.819580,229.738190
	C1754.370117,230.598312 1754.181396,231.225296 1753.675293,231.991409
	C1745.855469,240.418320 1738.352905,248.706100 1730.549561,257.100220
	C1729.668213,257.830811 1729.087524,258.455017 1728.243652,259.237335
	C1725.346680,262.099426 1722.713013,264.803375 1719.791870,267.755127
	C1718.840454,269.027649 1718.176392,270.052368 1717.249023,271.232544
	C1714.683350,273.761108 1712.381226,276.134186 1709.791870,278.755066
	C1708.840454,280.027618 1708.176392,281.052338 1707.249023,282.232605
	C1704.683716,284.760681 1702.381836,287.133209 1699.809570,289.743652
	C1698.995605,290.973480 1698.452148,291.965393 1697.949829,292.977234
	C1697.991089,292.997162 1697.924805,292.933990 1697.637451,293.031067
	C1697.230957,293.702667 1697.111938,294.277222 1696.679688,294.987732
	C1693.195068,298.746765 1690.023438,302.369873 1686.503906,305.998444
	C1685.605591,306.362732 1685.055298,306.721588 1684.254272,307.220947
	C1682.695557,308.743286 1681.387329,310.125183 1679.794678,311.756409
	C1678.843872,313.029480 1678.177490,314.053223 1677.247070,315.234283
	C1674.348267,318.096771 1671.713745,320.801941 1668.794678,323.756409
	C1667.843872,325.029480 1667.177490,326.053223 1666.247925,327.232971
	C1663.682983,329.761780 1661.381104,332.134552 1658.791870,334.755127
	C1657.840454,336.027649 1657.176392,337.052368 1656.250977,338.229797
	C1654.019775,340.423340 1652.050049,342.464203 1649.819580,344.738220
	C1649.370117,345.598358 1649.181396,346.225311 1648.676025,347.003052
	C1647.280640,348.561340 1646.285034,350.042664 1645.109497,351.363983
	C1638.380615,358.928040 1631.608887,366.454010 1624.503906,373.998352
	C1623.605591,374.362671 1623.055176,374.721527 1622.254395,375.220886
	C1620.695557,376.743347 1619.387451,378.125244 1617.794678,379.756439
	C1616.843872,381.029510 1616.177490,382.053253 1615.247925,383.232971
	C1612.682861,385.761627 1610.380981,388.134369 1607.794678,390.756409
	C1606.843872,392.029480 1606.177490,393.053223 1605.247925,394.232971
	C1602.682861,396.761688 1600.381104,399.134430 1597.794678,401.756470
	C1596.843872,403.029510 1596.177490,404.053253 1595.283447,405.182648
	C1594.397339,406.027191 1593.738892,406.766144 1592.819580,407.738281
	C1592.370117,408.598541 1592.181396,409.225647 1591.676758,409.990509
	C1578.857910,424.083191 1566.354858,438.038116 1553.503906,451.998474
	C1552.605591,452.362701 1552.055176,452.721558 1551.254395,453.220947
	C1549.695679,454.743469 1548.387451,456.125397 1546.791870,457.755127
	C1545.840454,459.027679 1545.176514,460.052399 1544.249023,461.232574
	C1541.683350,463.761047 1539.381226,466.134064 1536.794678,468.756409
	C1535.843872,470.029510 1535.177490,471.053253 1534.268555,472.203247
	C1533.043823,473.388336 1532.061768,474.447205 1530.802979,475.750183
	C1530.321411,476.668579 1530.116577,477.342804 1529.963623,478.016449
	C1530.015747,478.015839 1530.017090,477.911652 1529.651123,477.954102
	C1528.692017,478.357605 1528.099121,478.718689 1527.307373,479.150452
	C1526.765625,479.649506 1526.422729,480.077881 1525.781372,480.765900
	C1524.492188,482.376526 1523.501465,483.727448 1522.310913,485.148468
	C1521.767090,485.648743 1521.423096,486.078888 1520.772217,486.736633
	C1519.146851,488.335846 1517.828003,489.707489 1516.382568,491.076050
	C1516.074463,491.167358 1516.015991,491.311523 1515.803101,491.747803
	C1514.187012,493.686401 1512.848022,495.382721 1511.381836,497.076294
	C1511.073364,497.168243 1511.015137,497.312714 1510.787720,497.735168
	C1509.663574,498.975647 1508.831787,499.987823 1508.000000,501.000000
z"/>
    <path fill="#00A2E8" opacity="1.000000" stroke="none"
          d="
M1975.000000,501.000000
	C1820.975952,501.000000 1666.951782,501.000000 1512.650024,500.709717
	C1518.208740,497.294495 1523.995117,494.071625 1529.890625,491.062286
	C1550.896484,480.339661 1571.939331,469.689606 1592.968262,459.012146
	C1613.997192,448.334686 1635.026001,437.657104 1656.054932,426.979645
	C1677.083862,416.302185 1698.115967,405.631134 1719.140625,394.945343
	C1740.017700,384.334625 1760.881592,373.697754 1781.761719,363.093201
	C1803.826416,351.887146 1825.909424,340.717041 1847.973755,329.510254
	C1867.816406,319.431854 1887.640381,309.316437 1907.480713,299.233337
	C1929.098267,288.247101 1950.727783,277.284363 1972.347168,266.301819
	C1992.781738,255.921188 2013.204346,245.517410 2033.642456,235.143768
	C2055.709717,223.943161 2077.795166,212.778412 2099.860596,201.574387
	C2119.852783,191.423080 2139.825439,181.233856 2159.812500,171.072388
	C2181.428467,160.082703 2203.051514,149.106201 2224.670898,138.123016
	C2244.956543,127.817299 2265.239746,117.506317 2285.527832,107.205109
	C2307.297607,96.151627 2329.074219,85.111572 2350.843262,74.056870
	C2370.982910,63.829815 2391.105713,53.570091 2411.255371,43.362961
	C2437.333984,30.152435 2463.423828,16.963203 2489.542969,3.833122
	C2491.072510,3.064170 2492.909424,2.906833 2494.440430,2.786269
	C2491.863037,5.698342 2489.378662,8.228076 2487.045166,10.890063
	C2476.529297,22.886797 2466.117676,34.975349 2455.550537,46.926815
	C2444.307617,59.642746 2432.940186,72.248672 2421.612793,84.889793
	C2409.952393,97.902481 2398.266846,110.892914 2386.606201,123.905571
	C2375.278564,136.546616 2363.976807,149.210480 2352.649170,161.851379
	C2340.988281,174.864166 2329.306641,187.858017 2317.640869,200.866287
	C2303.225586,216.940887 2288.818115,233.022568 2274.405518,249.099640
	C2262.853271,261.985962 2251.300049,274.871338 2239.744141,287.754486
	C2225.216064,303.951233 2210.680664,320.141571 2196.156250,336.341705
	C2184.714600,349.103699 2173.289062,361.880310 2161.848145,374.642944
	C2147.324707,390.844147 2132.789062,407.034149 2118.266846,423.236389
	C2109.797852,432.685150 2101.375977,442.176300 2092.878174,451.599121
	C2078.321045,467.741211 2063.720703,483.844666 2049.089844,499.570312
	C2049.312012,498.289703 2049.582764,497.403076 2049.980957,496.097992
	C2039.791138,496.097992 2029.952026,496.097992 2019.823486,496.097717
	C2019.031738,496.352295 2018.529541,496.607208 2017.707520,496.938385
	C2016.950317,497.041687 2016.512939,497.068726 2015.753174,496.822876
	C2002.018921,496.549957 1988.606934,496.549957 1975.194946,496.549957
	C1975.179932,496.924622 1975.164917,497.299316 1975.150024,497.673981
	C1983.288696,497.673981 1991.427368,497.673981 1999.566040,497.673981
	C1999.563477,498.121857 1999.561035,498.569702 1999.558594,499.017578
	C1995.177734,499.017578 1990.777222,498.761536 1986.421753,499.094482
	C1982.588379,499.387482 1978.805298,500.339172 1975.000000,501.000000
z"/>
    <path fill="#5EEAE7" opacity="1.000000" stroke="none"
          d="
M2494.603271,2.464913
	C2492.909424,2.906833 2491.072510,3.064170 2489.542969,3.833122
	C2463.423828,16.963203 2437.333984,30.152435 2411.255371,43.362961
	C2391.105713,53.570091 2370.982910,63.829815 2350.843262,74.056870
	C2329.074219,85.111572 2307.297607,96.151627 2285.527832,107.205109
	C2265.239746,117.506317 2244.956543,127.817299 2224.670898,138.123016
	C2203.051514,149.106201 2181.428467,160.082703 2159.812500,171.072388
	C2139.825439,181.233856 2119.852783,191.423080 2099.860596,201.574387
	C2077.795166,212.778412 2055.709717,223.943161 2033.642456,235.143768
	C2013.204346,245.517410 1992.781738,255.921188 1972.347168,266.301819
	C1950.727783,277.284363 1929.098267,288.247101 1907.480713,299.233337
	C1887.640381,309.316437 1867.816406,319.431854 1847.973755,329.510254
	C1825.909424,340.717041 1803.826416,351.887146 1781.761719,363.093201
	C1760.881592,373.697754 1740.017700,384.334625 1719.140625,394.945343
	C1698.115967,405.631134 1677.083862,416.302185 1656.054932,426.979645
	C1635.026001,437.657104 1613.997192,448.334686 1592.968262,459.012146
	C1571.939331,469.689606 1550.896484,480.339661 1529.890625,491.062286
	C1523.995117,494.071625 1518.208740,497.294495 1512.186157,500.709717
	C1511.555542,501.000000 1511.111084,501.000000 1510.482910,500.638611
	C1510.559448,499.353760 1510.819824,498.430298 1511.080200,497.506836
	C1511.015137,497.312714 1511.073364,497.168243 1511.783203,497.237488
	C1513.567749,495.436127 1514.823975,493.470825 1516.080200,491.505524
	C1516.015991,491.311523 1516.074463,491.167358 1516.780762,491.237793
	C1518.563721,489.771484 1519.821411,488.140320 1521.079102,486.509094
	C1521.423096,486.078888 1521.767090,485.648743 1522.732544,485.304413
	C1524.262573,483.762268 1525.171265,482.134277 1526.079834,480.506256
	C1526.422729,480.077881 1526.765625,479.649506 1527.681030,479.314301
	C1528.841309,478.908875 1529.429199,478.410278 1530.017090,477.911682
	C1530.017090,477.911652 1530.015747,478.015839 1530.326782,477.838867
	C1530.785034,476.943298 1530.932373,476.224701 1531.079712,475.506104
	C1532.061768,474.447205 1533.043823,473.388336 1534.718506,472.336731
	C1535.967041,471.065063 1536.523071,469.786102 1537.079224,468.507111
	C1539.381226,466.134064 1541.683350,463.761047 1544.698730,461.366272
	C1545.967896,460.065460 1546.523560,458.786407 1547.079224,457.507355
	C1548.387451,456.125397 1549.695679,454.743469 1551.607300,453.389191
	C1552.757812,452.942230 1553.304810,452.467590 1553.851807,451.992981
	C1566.354858,438.038116 1578.857910,424.083191 1592.034912,409.848450
	C1592.832642,408.880768 1592.956543,408.192902 1593.080322,407.505066
	C1593.738892,406.766144 1594.397339,406.027191 1595.733398,405.316162
	C1596.967041,404.065094 1597.523071,402.786102 1598.079224,401.507141
	C1600.381104,399.134430 1602.682861,396.761688 1605.697754,394.366516
	C1606.966919,393.065094 1607.523071,391.786133 1608.079224,390.507141
	C1610.380981,388.134369 1612.682861,385.761627 1615.697754,383.366455
	C1616.966919,382.065033 1617.523071,380.786072 1618.079102,379.507111
	C1619.387451,378.125244 1620.695557,376.743347 1622.607300,375.389160
	C1623.757812,374.942230 1624.304810,374.467560 1624.851807,373.992920
	C1631.608887,366.454010 1638.380615,358.928040 1645.109497,351.363983
	C1646.285034,350.042664 1647.280640,348.561340 1649.034058,346.861084
	C1649.832642,345.880554 1649.956421,345.192810 1650.080322,344.505066
	C1652.050049,342.464203 1654.019775,340.423340 1656.700806,338.363495
	C1657.967896,337.065430 1658.523560,335.786377 1659.079224,334.507324
	C1661.381104,332.134552 1663.682983,329.761780 1666.697754,327.366486
	C1667.966919,326.065033 1668.522949,324.786072 1669.079102,323.507080
	C1671.713745,320.801941 1674.348267,318.096771 1677.696899,315.367798
	C1678.967041,314.065063 1679.523071,312.786102 1680.079102,311.507111
	C1681.387329,310.125183 1682.695557,308.743286 1684.607178,307.389130
	C1685.757690,306.942169 1686.304688,306.467529 1686.851807,305.992920
	C1690.023438,302.369873 1693.195068,298.746765 1697.007812,294.887085
	C1697.740845,294.078308 1697.832764,293.506165 1697.924805,292.933990
	C1697.924805,292.933990 1697.991089,292.997162 1698.368164,293.066956
	C1699.190308,291.926422 1699.635254,290.716064 1700.080078,289.505707
	C1702.381836,287.133209 1704.683716,284.760681 1707.698730,282.366302
	C1708.967773,281.065399 1709.523438,279.786346 1710.079224,278.507263
	C1712.381226,276.134186 1714.683350,273.761108 1717.698730,271.366272
	C1718.967896,270.065460 1719.523560,268.786407 1720.079224,267.507355
	C1722.713013,264.803375 1725.346680,262.099426 1728.623779,259.393372
	C1729.794922,258.592102 1730.322510,257.792969 1730.850220,256.993835
	C1738.352905,248.706100 1745.855469,240.418320 1754.033447,231.849457
	C1754.832764,230.880600 1754.956543,230.192825 1755.080322,229.505035
	C1756.062378,228.446228 1757.044556,227.387421 1758.719238,226.336533
	C1759.967651,225.065399 1760.523438,223.786331 1761.079224,222.507233
	C1763.381226,220.134171 1765.683350,217.761139 1768.698730,215.366287
	C1769.967651,214.065399 1770.523438,212.786331 1771.079224,211.507263
	C1773.713989,208.801788 1776.348755,206.096283 1779.697754,203.367584
	C1780.967773,202.065353 1781.523560,200.786316 1782.079224,199.507294
	C1784.380493,197.135452 1786.681763,194.763611 1789.625732,192.391754
	C1790.795288,191.592499 1791.322144,190.793228 1791.848999,189.993942
	C1799.686279,181.372009 1807.523560,172.750092 1816.034790,163.848450
	C1816.832642,162.880814 1816.956543,162.192932 1817.080322,161.505066
	C1817.424072,161.075974 1817.767944,160.646896 1818.732788,160.304047
	C1820.262573,158.762283 1821.171143,157.134262 1822.079834,155.506226
	C1824.713745,152.801987 1827.347656,150.097748 1830.658081,147.381561
	C1831.872070,146.218872 1832.409424,145.068115 1832.946777,143.917358
	C1832.946777,143.917358 1832.993042,144.001450 1833.235962,144.180374
	C1833.936401,143.903915 1834.393921,143.448532 1834.851318,142.993134
	C1842.689209,134.370300 1850.527100,125.747482 1859.036865,116.846504
	C1859.832642,115.880569 1859.956421,115.192810 1860.080322,114.505043
	C1860.016724,114.310234 1860.075928,114.165649 1860.834961,114.207825
	C1861.967651,113.065346 1862.523438,111.786331 1863.079224,110.507324
	C1865.380493,108.135460 1867.681763,105.763580 1870.625732,103.391754
	C1871.795410,102.592537 1872.322266,101.793289 1872.849121,100.993988
	C1874.358276,99.367836 1875.867432,97.741737 1878.042725,95.842087
	C1878.832764,94.880714 1878.956543,94.192879 1879.080322,93.505058
	C1879.738892,92.766113 1880.397461,92.027153 1881.733398,91.316101
	C1882.966919,90.065056 1883.523071,88.786087 1884.079102,87.507126
	C1886.381104,85.134392 1888.682983,82.761658 1891.697876,80.366455
	C1892.966919,79.065033 1893.523071,77.786087 1894.079224,76.507149
	C1894.014404,76.314102 1894.072021,76.170189 1894.731689,76.246124
	C1895.757812,75.942200 1896.304810,75.467567 1896.851807,74.992950
	C1904.689941,66.369919 1912.528198,57.746872 1921.007568,48.887161
	C1921.740845,48.078327 1921.832886,47.506161 1921.924805,46.933990
	C1921.924805,46.933990 1921.991211,46.997162 1922.368408,47.066959
	C1923.190308,45.926411 1923.635254,44.716064 1924.080078,43.505707
	C1926.713745,40.801891 1929.347412,38.098091 1932.624756,35.393036
	C1933.795410,34.592499 1934.322388,33.793213 1934.849365,32.993927
	C1938.019287,29.380533 1941.189331,25.767143 1945.034180,21.861124
	C1945.832764,20.880684 1945.956543,20.192873 1946.080322,19.505081
	C1947.718750,17.794746 1949.357178,16.084393 1951.674805,14.382186
	C1953.262573,12.762321 1954.171265,11.134308 1955.079834,9.506289
	C1955.424316,9.076334 1955.768677,8.646387 1956.764648,8.285280
	C1957.969971,7.407098 1958.523560,6.460077 1959.077271,5.513066
	C1959.421509,5.082068 1959.765747,4.651060 1960.663940,4.320411
	C1962.478638,3.280523 1963.739380,2.140275 1965.000000,1.000014
	C2141.020752,1.000000 2317.041748,1.000000 2493.581055,1.344747
	C2494.199219,1.899215 2494.298828,2.108936 2494.469238,2.327796
	C2494.540039,2.336934 2494.603271,2.464921 2494.603271,2.464913
z"/>
    <path fill="#FA08E4" opacity="1.000000" stroke="none"
          d="
M2049.138428,499.964294
	C2063.720703,483.844666 2078.321045,467.741211 2092.878174,451.599121
	C2101.375977,442.176300 2109.797852,432.685150 2118.266846,423.236389
	C2132.789062,407.034149 2147.324707,390.844147 2161.848145,374.642944
	C2173.289062,361.880310 2184.714600,349.103699 2196.156250,336.341705
	C2210.680664,320.141571 2225.216064,303.951233 2239.744141,287.754486
	C2251.300049,274.871338 2262.853271,261.985962 2274.405518,249.099640
	C2288.818115,233.022568 2303.225586,216.940887 2317.640869,200.866287
	C2329.306641,187.858017 2340.988281,174.864166 2352.649170,161.851379
	C2363.976807,149.210480 2375.278564,136.546616 2386.606201,123.905571
	C2398.266846,110.892914 2409.952393,97.902481 2421.612793,84.889793
	C2432.940186,72.248672 2444.307617,59.642746 2455.550537,46.926815
	C2466.117676,34.975349 2476.529297,22.886797 2487.045166,10.890063
	C2489.378662,8.228076 2491.863037,5.698342 2494.440430,2.786276
	C2494.603271,2.464921 2494.540039,2.336934 2494.758545,2.374444
	C2495.318115,1.941301 2495.658936,1.470649 2496.000000,0.999999
	C2497.664307,1.000000 2499.328369,1.000000 2500.996338,1.000000
	C2501.000000,97.687561 2501.000000,194.375122 2500.631592,291.657104
	C2499.842529,293.744781 2499.378906,295.227570 2499.009521,296.733398
	C2498.037354,300.695709 2497.106445,304.668060 2496.069580,309.010071
	C2494.153076,307.781158 2493.373047,307.281158 2492.106445,306.468964
	C2491.720947,313.450775 2491.373291,319.747314 2491.020996,326.359894
	C2491.013428,327.097351 2491.010986,327.518738 2491.004639,328.220215
	C2491.003418,328.687012 2491.005859,328.873718 2491.002441,329.301575
	C2490.996582,329.542664 2490.976562,330.024628 2490.724121,330.348938
	C2490.317627,340.784210 2490.163574,350.895172 2490.006348,361.474365
	C2490.005371,381.959747 2490.007568,401.976807 2490.006348,422.462952
	C2490.395264,437.326019 2490.788086,451.720032 2491.180664,466.114075
	C2491.769531,465.877594 2492.358643,465.641144 2492.947754,465.404663
	C2495.631836,466.936462 2498.315918,468.468262 2501.000000,470.000000
	C2501.000000,480.323212 2501.000000,490.646423 2501.000000,501.000000
	C2362.645752,501.000000 2224.291748,501.000000 2085.788086,500.629791
	C2079.773926,500.021881 2073.909180,499.784180 2068.044678,499.546478
	C2068.029785,500.030975 2068.014893,500.515503 2068.000000,501.000000
	C2061.978760,501.000000 2055.957764,501.000000 2049.466309,500.736206
	C2049.043701,500.303040 2049.091064,500.133667 2049.138428,499.964294
z"/>
    <path fill="#FF00FE" opacity="1.000000" stroke="none"
          d="
M2491.008301,327.940155
	C2491.010986,327.518738 2491.013428,327.097351 2491.248291,326.117859
	C2491.806641,324.465912 2492.132812,323.372040 2492.458984,322.278168
	C2492.693359,322.301849 2492.927734,322.325562 2493.162109,322.349243
	C2493.563965,325.101593 2493.965576,327.853943 2494.405518,330.867004
	C2495.062256,329.011780 2495.586914,327.529297 2496.061768,326.510162
	C2496.011719,367.386871 2496.011719,407.800262 2496.011719,448.213623
	C2496.368896,448.217102 2496.726318,448.220581 2497.083496,448.224091
	C2497.083496,439.379395 2497.083496,430.534698 2497.083496,421.690033
	C2498.000977,426.151184 2497.766602,430.622681 2498.138428,435.043182
	C2498.255615,436.432556 2500.000244,437.684937 2501.000000,439.000000
	C2501.000000,444.354919 2501.000000,449.709869 2500.726562,455.377655
	C2493.827393,453.269562 2495.077148,447.595367 2495.017090,442.480347
	C2494.978027,439.154480 2495.009766,435.827789 2495.009766,432.501465
	C2494.783203,432.505188 2494.556396,432.508942 2494.329834,432.512665
	C2493.846924,440.238556 2493.364258,447.964478 2492.881592,455.690369
	C2492.501709,455.689362 2492.121826,455.688324 2491.741943,455.687317
	C2491.477051,444.453613 2491.212158,433.219910 2490.963867,421.519104
	C2490.969727,401.039307 2490.958984,381.026611 2490.964844,360.544067
	C2490.979980,350.057739 2490.978271,340.041168 2490.976562,330.024628
	C2490.976562,330.024628 2490.996582,329.542664 2491.140625,329.183960
	C2491.192627,328.530243 2491.100586,328.235199 2491.008301,327.940155
M2492.000488,369.500000
	C2492.000488,394.033661 2492.000488,418.567322 2492.000488,443.100983
	C2492.242188,443.098602 2492.483887,443.096252 2492.725586,443.093872
	C2492.725586,406.294830 2492.725586,369.495758 2492.725586,332.696686
	C2492.483887,332.695221 2492.242188,332.693726 2492.000488,332.692230
	C2492.000488,344.628143 2492.000488,356.564087 2492.000488,369.500000
z"/>
    <path fill="#000000" opacity="1.000000" stroke="none"
          d="
M2501.000000,438.531342
	C2500.000244,437.684937 2498.255615,436.432556 2498.138428,435.043182
	C2497.766602,430.622681 2498.000977,426.151184 2497.083496,421.690033
	C2497.083496,430.534698 2497.083496,439.379395 2497.083496,448.224091
	C2496.726318,448.220581 2496.368896,448.217102 2496.011719,448.213623
	C2496.011719,407.800262 2496.011719,367.386871 2496.025391,326.511963
	C2496.039062,326.050446 2496.047363,326.122833 2496.450195,326.281158
	C2496.853027,335.364441 2496.853027,344.289429 2496.853027,353.214386
	C2498.000977,348.444550 2497.781006,343.661865 2498.138184,338.922638
	C2498.241699,337.550964 2500.000244,336.304077 2501.000000,335.000000
	C2501.000000,369.354218 2501.000000,403.708466 2501.000000,438.531342
z"/>
    <path fill="#FF00D5" opacity="1.000000" stroke="none"
          d="
M2490.947266,421.986206
	C2491.212158,433.219910 2491.477051,444.453613 2491.741943,455.687317
	C2492.121826,455.688324 2492.501709,455.689362 2492.881592,455.690369
	C2493.364258,447.964478 2493.846924,440.238556 2494.329834,432.512665
	C2494.556396,432.508942 2494.783203,432.505188 2495.009766,432.501465
	C2495.009766,435.827789 2494.978027,439.154480 2495.017090,442.480347
	C2495.077148,447.595367 2493.827393,453.269562 2500.726562,455.845276
	C2501.000000,460.356903 2501.000000,464.713806 2501.000000,469.535370
	C2498.315918,468.468262 2495.631836,466.936462 2492.947754,465.404663
	C2492.358643,465.641144 2491.769531,465.877594 2491.180664,466.114075
	C2490.788086,451.720032 2490.395264,437.326019 2490.240723,422.462677
	C2490.478516,421.993378 2490.947266,421.986206 2490.947266,421.986206
z"/>
    <path fill="#FF00D5" opacity="1.000000" stroke="none"
          d="
M2496.075439,326.048645
	C2495.586914,327.529297 2495.062256,329.011780 2494.405518,330.867004
	C2493.965576,327.853943 2493.563965,325.101593 2493.162109,322.349243
	C2492.927734,322.325562 2492.693359,322.301849 2492.458984,322.278168
	C2492.132812,323.372040 2491.806641,324.465912 2491.252930,325.801819
	C2491.373291,319.747314 2491.720947,313.450775 2492.106445,306.468964
	C2493.373047,307.281158 2494.153076,307.781158 2496.069580,309.010071
	C2497.106445,304.668060 2498.037354,300.695709 2499.009521,296.733398
	C2499.378906,295.227570 2499.842529,293.744781 2500.631592,292.125732
	C2501.000000,299.687592 2501.000000,307.375153 2500.755615,315.772644
	C2499.023438,319.695984 2497.535400,322.909424 2496.047363,326.122864
	C2496.047363,326.122833 2496.039062,326.050446 2496.075439,326.048645
z"/>
    <path fill="#000000" opacity="1.000000" stroke="none"
          d="
M2049.089844,499.570312
	C2049.091064,500.133667 2049.043701,500.303040 2048.998047,500.736206
	C2036.645752,501.000000 2024.291504,501.000000 2011.499390,500.576721
	C2013.868896,499.587158 2016.676392,499.020844 2019.346069,498.482330
	C2018.405151,498.083405 2017.240234,497.589569 2016.075439,497.095764
	C2016.512939,497.068726 2016.950317,497.041687 2018.025024,497.005066
	C2019.145874,496.696289 2019.629395,496.397125 2020.113037,496.097992
	C2029.952026,496.097992 2039.791138,496.097992 2049.980957,496.097992
	C2049.582764,497.403076 2049.312012,498.289703 2049.089844,499.570312
z"/>
    <path fill="#00A5FF" opacity="1.000000" stroke="none"
          d="
M2015.753174,496.822845
	C2017.240234,497.589569 2018.405151,498.083405 2019.346069,498.482330
	C2016.676392,499.020844 2013.868896,499.587158 2011.030762,500.576721
	C1999.312378,501.000000 1987.624878,501.000000 1975.468628,501.000000
	C1978.805298,500.339172 1982.588379,499.387482 1986.421753,499.094482
	C1990.777222,498.761536 1995.177734,499.017578 1999.558594,499.017578
	C1999.561035,498.569702 1999.563477,498.121857 1999.566040,497.673981
	C1991.427368,497.673981 1983.288696,497.673981 1975.150024,497.673981
	C1975.164917,497.299316 1975.179932,496.924622 1975.194946,496.549957
	C1988.606934,496.549957 2002.018921,496.549957 2015.753174,496.822845
z"/>
    <path fill="#FF00FE" opacity="1.000000" stroke="none"
          d="
M2496.450195,326.281189
	C2497.535400,322.909424 2499.023438,319.695984 2500.755615,316.241272
	C2501.000000,322.021149 2501.000000,328.042297 2501.000000,334.531738
	C2500.000244,336.304077 2498.241699,337.550964 2498.138184,338.922638
	C2497.781006,343.661865 2498.000977,348.444550 2496.853027,353.214386
	C2496.853027,344.289429 2496.853027,335.364441 2496.450195,326.281189
z"/>
    <path fill="#000000" opacity="1.000000" stroke="none"
          d="
M2068.467773,501.000000
	C2068.014893,500.515503 2068.029785,500.030975 2068.044678,499.546478
	C2073.909180,499.784180 2079.773926,500.021881 2085.319336,500.629791
	C2079.645020,501.000000 2074.290283,501.000000 2068.467773,501.000000
z"/>
    <path fill="#FFFFFF" opacity="1.000000" stroke="none"
          d="
M1964.600098,1.000014
	C1963.739380,2.140275 1962.478638,3.280523 1960.864136,4.250350
	C1960.903564,3.263361 1961.296753,2.446792 1961.344971,1.315112
	C1962.066650,1.000000 1963.133423,1.000000 1964.600098,1.000014
z"/>
    <path fill="#FFFFFF" opacity="1.000000" stroke="none"
          d="
M1510.787720,497.735168
	C1510.819824,498.430298 1510.559448,499.353760 1510.149536,500.638611
	C1509.555542,501.000000 1509.111084,501.000000 1508.333252,501.000000
	C1508.831787,499.987823 1509.663574,498.975647 1510.787720,497.735168
z"/>
    <path fill="#00A2E8" opacity="1.000000" stroke="none"
          d="
M2495.666748,0.999999
	C2495.658936,1.470649 2495.318115,1.941301 2494.687744,2.365305
	C2494.298828,2.108936 2494.199219,1.899215 2494.049805,1.344747
	C2494.444580,1.000000 2494.888916,1.000000 2495.666748,0.999999
z"/>
    <path fill="#FFFFFF" opacity="1.000000" stroke="none"
          d="
M1515.803101,491.747803
	C1514.823975,493.470825 1513.567749,495.436127 1511.910156,497.240265
	C1512.848022,495.382721 1514.187012,493.686401 1515.803101,491.747803
z"/>
    <path fill="#FFFFFF" opacity="1.000000" stroke="none"
          d="
M1520.772339,486.736694
	C1519.821411,488.140320 1518.563721,489.771484 1516.907593,491.240875
	C1517.828003,489.707489 1519.146851,488.335846 1520.772339,486.736694
z"/>
    <path fill="#FFFFFF" opacity="1.000000" stroke="none"
          d="
M1821.781494,155.765930
	C1821.171143,157.134262 1820.262573,158.762283 1818.932373,160.234360
	C1819.501587,158.727493 1820.492310,157.376556 1821.781494,155.765930
z"/>
    <path fill="#FFFFFF" opacity="1.000000" stroke="none"
          d="
M1525.781494,480.765930
	C1525.171265,482.134277 1524.262573,483.762268 1522.932373,485.234314
	C1523.501465,483.727448 1524.492188,482.376526 1525.781494,480.765930
z"/>
    <path fill="#FFFFFF" opacity="1.000000" stroke="none"
          d="
M1954.781494,9.765961
	C1954.171265,11.134308 1953.262573,12.762321 1951.932373,14.234384
	C1952.501587,12.727498 1953.492310,11.376562 1954.781494,9.765961
z"/>
    <path fill="#FFFFFF" opacity="1.000000" stroke="none"
          d="
M1719.791870,267.755127
	C1719.523560,268.786407 1718.967896,270.065460 1717.962280,271.210815
	C1718.176392,270.052368 1718.840454,269.027649 1719.791870,267.755127
z"/>
    <path fill="#FFFFFF" opacity="1.000000" stroke="none"
          d="
M1658.791870,334.755127
	C1658.523560,335.786377 1657.967896,337.065430 1656.962280,338.210785
	C1657.176392,337.052368 1657.840454,336.027649 1658.791870,334.755127
z"/>
    <path fill="#FFFFFF" opacity="1.000000" stroke="none"
          d="
M1923.809570,43.743637
	C1923.635254,44.716064 1923.190308,45.926411 1922.327026,47.047020
	C1922.452026,45.965374 1922.995605,44.973461 1923.809570,43.743637
z"/>
    <path fill="#FFFFFF" opacity="1.000000" stroke="none"
          d="
M1546.791870,457.755127
	C1546.523560,458.786407 1545.967896,460.065460 1544.962280,461.210815
	C1545.176514,460.052399 1545.840454,459.027679 1546.791870,457.755127
z"/>
    <path fill="#FFFFFF" opacity="1.000000" stroke="none"
          d="
M1699.809570,289.743652
	C1699.635254,290.716064 1699.190308,291.926422 1698.326904,293.047028
	C1698.452148,291.965393 1698.995605,290.973480 1699.809570,289.743652
z"/>
    <path fill="#FFFFFF" opacity="1.000000" stroke="none"
          d="
M1709.791870,278.755096
	C1709.523438,279.786346 1708.967773,281.065399 1707.962280,282.210754
	C1708.176392,281.052338 1708.840454,280.027618 1709.791870,278.755096
z"/>
    <path fill="#FFFFFF" opacity="1.000000" stroke="none"
          d="
M1760.791870,222.755081
	C1760.523438,223.786331 1759.967651,225.065399 1758.962158,226.210785
	C1759.176514,225.052383 1759.840454,224.027649 1760.791870,222.755081
z"/>
    <path fill="#FFFFFF" opacity="1.000000" stroke="none"
          d="
M1770.791870,211.755066
	C1770.523438,212.786331 1769.967651,214.065399 1768.962158,215.210785
	C1769.176514,214.052368 1769.840454,213.027634 1770.791870,211.755066
z"/>
    <path fill="#FFFFFF" opacity="1.000000" stroke="none"
          d="
M1781.791870,199.755066
	C1781.523560,200.786316 1780.967773,202.065353 1779.962158,203.210739
	C1780.176392,202.052353 1780.840454,201.027618 1781.791870,199.755066
z"/>
    <path fill="#FFFFFF" opacity="1.000000" stroke="none"
          d="
M1862.791870,110.755127
	C1862.523438,111.786331 1861.967651,113.065346 1860.962158,114.210747
	C1861.176514,113.052399 1861.840576,112.027664 1862.791870,110.755127
z"/>
    <path fill="#FFFFFF" opacity="1.000000" stroke="none"
          d="
M1958.745361,5.739842
	C1958.523560,6.460077 1957.969971,7.407098 1956.964844,8.215685
	C1957.146606,7.373709 1957.779907,6.670169 1958.745361,5.739842
z"/>
    <path fill="#FFFFFF" opacity="1.000000" stroke="none"
          d="
M1536.794678,468.756470
	C1536.523071,469.786102 1535.967041,471.065063 1534.960938,472.210510
	C1535.177490,471.053253 1535.843872,470.029510 1536.794678,468.756470
z"/>
    <path fill="#FFFFFF" opacity="1.000000" stroke="none"
          d="
M1934.482910,33.001091
	C1934.322388,33.793213 1933.795410,34.592499 1932.888428,35.235489
	C1933.044434,34.388882 1933.580444,33.698570 1934.482910,33.001091
z"/>
    <path fill="#FFFFFF" opacity="1.000000" stroke="none"
          d="
M1597.794678,401.756470
	C1597.523071,402.786102 1596.967041,404.065094 1595.960938,405.210541
	C1596.177490,404.053253 1596.843872,403.029510 1597.794678,401.756470
z"/>
    <path fill="#FFFFFF" opacity="1.000000" stroke="none"
          d="
M1607.794678,390.756470
	C1607.523071,391.786133 1606.966919,393.065094 1605.960938,394.210541
	C1606.177490,393.053223 1606.843872,392.029480 1607.794678,390.756470
z"/>
    <path fill="#FFFFFF" opacity="1.000000" stroke="none"
          d="
M1617.794678,379.756439
	C1617.523071,380.786072 1616.966919,382.065033 1615.960938,383.210510
	C1616.177490,382.053253 1616.843872,381.029510 1617.794678,379.756439
z"/>
    <path fill="#FFFFFF" opacity="1.000000" stroke="none"
          d="
M1872.482666,101.001183
	C1872.322266,101.793289 1871.795410,102.592537 1870.888428,103.235519
	C1871.044434,102.388939 1871.580322,101.698639 1872.482666,101.001183
z"/>
    <path fill="#FFFFFF" opacity="1.000000" stroke="none"
          d="
M1668.794678,323.756409
	C1668.522949,324.786072 1667.966919,326.065033 1666.960938,327.210510
	C1667.177490,326.053223 1667.843872,325.029480 1668.794678,323.756409
z"/>
    <path fill="#FFFFFF" opacity="1.000000" stroke="none"
          d="
M1893.794678,76.756447
	C1893.523071,77.786087 1892.966919,79.065033 1891.960938,80.210480
	C1892.177490,79.053246 1892.843750,78.029503 1893.794678,76.756447
z"/>
    <path fill="#FFFFFF" opacity="1.000000" stroke="none"
          d="
M1679.794678,311.756409
	C1679.523071,312.786102 1678.967041,314.065063 1677.960938,315.210510
	C1678.177490,314.053223 1678.843872,313.029480 1679.794678,311.756409
z"/>
    <path fill="#FFFFFF" opacity="1.000000" stroke="none"
          d="
M1832.622070,144.049911
	C1832.409424,145.068115 1831.872070,146.218872 1830.921753,147.223877
	C1831.104980,146.112885 1831.701050,145.147675 1832.622070,144.049911
z"/>
    <path fill="#FFFFFF" opacity="1.000000" stroke="none"
          d="
M1791.482666,190.001144
	C1791.322144,190.793228 1790.795288,191.592499 1789.888550,192.235519
	C1790.044434,191.388947 1790.580322,190.698639 1791.482666,190.001144
z"/>
    <path fill="#FFFFFF" opacity="1.000000" stroke="none"
          d="
M1883.794678,87.756454
	C1883.523071,88.786087 1882.966919,90.065056 1881.960938,91.210526
	C1882.177490,90.053276 1882.843872,89.029533 1883.794678,87.756454
z"/>
    <path fill="#FFFFFF" opacity="1.000000" stroke="none"
          d="
M1730.549561,257.100220
	C1730.322510,257.792969 1729.794922,258.592102 1728.886963,259.235229
	C1729.087524,258.455017 1729.668213,257.830811 1730.549561,257.100220
z"/>
    <path fill="#FFFFFF" opacity="1.000000" stroke="none"
          d="
M1878.819580,93.738205
	C1878.956543,94.192879 1878.832764,94.880714 1878.350830,95.710480
	C1878.181396,95.225395 1878.370117,94.598381 1878.819580,93.738205
z"/>
    <path fill="#FFFFFF" opacity="1.000000" stroke="none"
          d="
M1896.503906,74.998444
	C1896.304810,75.467567 1895.757812,75.942200 1894.857910,76.248634
	C1895.055420,75.721611 1895.605835,75.362785 1896.503906,74.998444
z"/>
    <path fill="#FFFFFF" opacity="1.000000" stroke="none"
          d="
M1859.819580,114.738190
	C1859.956421,115.192810 1859.832642,115.880569 1859.350708,116.710297
	C1859.181396,116.225288 1859.370117,115.598312 1859.819580,114.738190
z"/>
    <path fill="#FFFFFF" opacity="1.000000" stroke="none"
          d="
M1834.548828,142.997284
	C1834.393921,143.448532 1833.936401,143.903915 1833.206543,144.141876
	C1833.371582,143.616776 1833.808838,143.309097 1834.548828,142.997284
z"/>
    <path fill="#FFFFFF" opacity="1.000000" stroke="none"
          d="
M1816.819580,161.738251
	C1816.956543,162.192932 1816.832642,162.880814 1816.350708,163.710693
	C1816.181396,163.225616 1816.370117,162.598541 1816.819580,161.738251
z"/>
    <path fill="#FFFFFF" opacity="1.000000" stroke="none"
          d="
M1529.651123,477.954102
	C1529.429199,478.410278 1528.841309,478.908875 1527.879761,479.243622
	C1528.099121,478.718689 1528.692017,478.357605 1529.651123,477.954102
z"/>
    <path fill="#FFFFFF" opacity="1.000000" stroke="none"
          d="
M1530.802979,475.750214
	C1530.932373,476.224701 1530.785034,476.943298 1530.274658,477.839478
	C1530.116577,477.342804 1530.321411,476.668579 1530.802979,475.750214
z"/>
    <path fill="#FFFFFF" opacity="1.000000" stroke="none"
          d="
M1754.819580,229.738190
	C1754.956543,230.192825 1754.832764,230.880600 1754.350830,231.710327
	C1754.181396,231.225296 1754.370117,230.598312 1754.819580,229.738190
z"/>
    <path fill="#FFFFFF" opacity="1.000000" stroke="none"
          d="
M1945.819580,19.738209
	C1945.956543,20.192873 1945.832764,20.880684 1945.350830,21.710403
	C1945.181396,21.225325 1945.370117,20.598339 1945.819580,19.738209
z"/>
    <path fill="#FFFFFF" opacity="1.000000" stroke="none"
          d="
M1553.503906,451.998413
	C1553.304810,452.467590 1552.757812,452.942230 1551.857910,453.248627
	C1552.055176,452.721558 1552.605591,452.362701 1553.503906,451.998413
z"/>
    <path fill="#FFFFFF" opacity="1.000000" stroke="none"
          d="
M1697.637451,293.031067
	C1697.832764,293.506165 1697.740845,294.078308 1697.320923,294.751129
	C1697.111938,294.277222 1697.230957,293.702667 1697.637451,293.031067
z"/>
    <path fill="#FFFFFF" opacity="1.000000" stroke="none"
          d="
M1592.819580,407.738251
	C1592.956543,408.192902 1592.832642,408.880768 1592.350708,409.710693
	C1592.181396,409.225647 1592.370117,408.598541 1592.819580,407.738251
z"/>
    <path fill="#FFFFFF" opacity="1.000000" stroke="none"
          d="
M1686.503906,305.998413
	C1686.304688,306.467529 1685.757690,306.942169 1684.857788,307.248657
	C1685.055298,306.721588 1685.605591,306.362732 1686.503906,305.998413
z"/>
    <path fill="#FFFFFF" opacity="1.000000" stroke="none"
          d="
M1624.503906,373.998352
	C1624.304810,374.467560 1623.757812,374.942230 1622.857910,375.248596
	C1623.055176,374.721527 1623.605591,374.362671 1624.503906,373.998352
z"/>
    <path fill="#FFFFFF" opacity="1.000000" stroke="none"
          d="
M1649.819580,344.738220
	C1649.956421,345.192810 1649.832642,345.880554 1649.350830,346.710327
	C1649.181396,346.225311 1649.370117,345.598358 1649.819580,344.738220
z"/>
    <path fill="#FFFFFF" opacity="1.000000" stroke="none"
          d="
M1921.637329,47.031036
	C1921.832886,47.506161 1921.740845,48.078327 1921.320801,48.751183
	C1921.111816,48.277271 1921.230835,47.702679 1921.637329,47.031036
z"/>
    <path fill="#00A5FF" opacity="1.000000" stroke="none"
          d="
M2019.823486,496.097717
	C2019.629395,496.397125 2019.145874,496.696289 2018.344727,496.928772
	C2018.529541,496.607208 2019.031738,496.352295 2019.823486,496.097717
z"/>
    <path fill="#FF00CC" opacity="1.000000" stroke="none"
          d="
M2490.963867,421.519104
	C2490.947266,421.986206 2490.478516,421.993378 2490.244141,421.993652
	C2490.007568,401.976807 2490.005371,381.959747 2490.240967,361.474640
	C2490.478760,361.006622 2490.947998,361.013885 2490.947998,361.013885
	C2490.958984,381.026611 2490.969727,401.039307 2490.963867,421.519104
z"/>
    <path fill="#FF00D5" opacity="1.000000" stroke="none"
          d="
M2490.964844,360.544067
	C2490.947998,361.013885 2490.478760,361.006622 2490.244141,361.006348
	C2490.163574,350.895172 2490.317627,340.784210 2490.724121,330.348938
	C2490.978271,340.041168 2490.979980,350.057739 2490.964844,360.544067
z"/>
    <path fill="#FF00D5" opacity="1.000000" stroke="none"
          d="
M2491.004639,328.220215
	C2491.100586,328.235199 2491.192627,328.530243 2491.146729,328.942871
	C2491.005859,328.873718 2491.003418,328.687012 2491.004639,328.220215
z"/>
    <path fill="#000000" opacity="1.000000" stroke="none"
          d="
M2492.000488,369.000000
	C2492.000488,356.564087 2492.000488,344.628143 2492.000488,332.692230
	C2492.242188,332.693726 2492.483887,332.695221 2492.725586,332.696686
	C2492.725586,369.495758 2492.725586,406.294830 2492.725586,443.093872
	C2492.483887,443.096252 2492.242188,443.098602 2492.000488,443.100983
	C2492.000488,418.567322 2492.000488,394.033661 2492.000488,369.000000
z"/>
</svg>
