<svg version="1.1" id="Layer_1" xmlns="http://www.w3.org/2000/svg" xmlns:xlink="http://www.w3.org/1999/xlink" x="0px" y="0px"
	 width="100%" viewBox="0 0 512 512" enable-background="new 0 0 512 512" xml:space="preserve">
<path fill="#1F1F1F" opacity="1.000000" stroke="none" 
	d="
M1.000000,446.000000 
	C1.000000,320.310699 1.000000,194.621384 1.338408,68.356659 
	C2.455497,66.008080 3.399317,64.287956 3.988244,62.453880 
	C13.810862,31.863455 33.895710,11.940250 65.061882,3.416271 
	C66.488174,3.026178 67.692368,1.823967 69.000000,1.000000 
	C194.022644,1.000000 319.045288,1.000000 444.646088,1.341199 
	C447.170013,2.459035 449.127228,3.208390 451.059509,4.017260 
	C457.759338,6.821843 464.841888,8.972712 471.072906,12.588700 
	C491.200012,24.268860 504.165344,41.702122 510.570953,64.070290 
	C510.979034,65.495209 512.172119,66.695312 513.000000,68.000000 
	C513.000000,193.689316 513.000000,319.378632 512.661621,445.643372 
	C511.544464,447.991943 510.600677,449.712067 510.011719,451.546143 
	C500.189178,482.136627 480.104279,502.059784 448.938141,510.583740 
	C447.511810,510.973846 446.307617,512.176025 445.000000,513.000000 
	C319.977356,513.000000 194.954727,513.000000 69.353928,512.658813 
	C66.830009,511.540985 64.872810,510.791656 62.940525,509.982788 
	C56.240692,507.178192 49.158161,505.027313 42.927120,501.411346 
	C22.799955,489.731201 9.834667,472.297882 3.429027,449.929718 
	C3.020978,448.504791 1.827888,447.304688 1.000000,446.000000 
M156.983429,195.910767 
	C163.668579,195.864197 170.353729,195.817642 177.960007,195.924835 
	C186.985947,195.873062 196.011902,195.821304 205.946457,195.926102 
	C209.016464,195.926102 212.086487,195.926102 215.335236,195.926102 
	C215.335236,198.887543 215.321014,201.042068 215.337524,203.196350 
	C215.444321,217.130432 215.557846,231.064453 215.405838,245.902115 
	C215.381912,253.687393 215.309921,261.472900 215.344055,269.257935 
	C215.415161,285.481049 215.542374,301.703918 215.406906,318.843689 
	C215.379440,339.490906 215.380783,360.138245 215.304459,380.785309 
	C215.285156,386.009369 218.010864,389.490967 222.080338,392.179718 
	C232.344757,398.961578 243.822037,400.561584 256.734772,400.111755 
	C264.464050,398.495544 272.449127,397.619781 279.853180,395.062042 
	C287.801910,392.316162 291.914520,386.513062 291.596893,377.108215 
	C290.955994,358.131561 291.441193,339.117981 291.391022,320.119812 
	C291.365967,310.631348 291.184814,301.143250 291.259979,290.777649 
	C291.180603,284.038086 291.101196,277.298492 291.319183,269.587463 
	C291.248871,261.399536 291.178589,253.211594 291.349426,244.242538 
	C291.349426,228.303085 291.349426,212.363632 291.349426,195.952850 
	C293.706512,195.952850 295.503693,195.952850 297.300873,195.952835 
	C322.779724,195.952835 348.262085,196.164963 373.733978,195.744202 
	C377.985260,195.673981 383.046265,193.860336 386.267700,191.125885 
	C399.195770,180.152100 401.221954,155.828812 391.102478,139.964371 
	C386.672974,133.020218 380.548065,129.144272 371.052765,130.022293 
	C355.105591,130.014832 339.158417,129.984344 323.211273,130.004944 
	C294.144501,130.042511 265.077820,130.110367 235.082123,130.025375 
	C208.741180,130.075745 182.400253,130.126114 155.121460,130.029678 
	C148.622528,130.019165 142.103653,129.687225 135.630325,130.089081 
	C129.232773,130.486221 123.235001,132.698288 119.047859,137.806702 
	C108.533516,150.634476 107.230888,169.319382 115.737709,183.765305 
	C119.938850,190.899490 126.455605,195.136154 134.594101,195.813293 
	C141.700607,196.404587 148.904785,195.821838 156.983429,195.910767 
z"/>
<path fill="#000000" opacity="1.000000" stroke="none" 
	d="
M513.000000,67.531342 
	C512.172119,66.695312 510.979034,65.495209 510.570953,64.070290 
	C504.165344,41.702122 491.200012,24.268860 471.072906,12.588700 
	C464.841888,8.972712 457.759338,6.821843 451.059509,4.017260 
	C449.127228,3.208390 447.170013,2.459035 445.112122,1.341199 
	C467.592987,1.000000 490.185944,1.000000 513.000000,1.000000 
	C513.000000,23.020401 513.000000,45.041542 513.000000,67.531342 
z"/>
<path fill="#000000" opacity="1.000000" stroke="none" 
	d="
M1.000000,446.468658 
	C1.827888,447.304688 3.020978,448.504791 3.429027,449.929718 
	C9.834667,472.297882 22.799955,489.731201 42.927120,501.411346 
	C49.158161,505.027313 56.240692,507.178192 62.940525,509.982788 
	C64.872810,510.791656 66.830009,511.540985 68.887894,512.658813 
	C46.407028,513.000000 23.814060,513.000000 1.000000,513.000000 
	C1.000000,490.979584 1.000000,468.958466 1.000000,446.468658 
z"/>
<path fill="#000000" opacity="1.000000" stroke="none" 
	d="
M68.531342,1.000000 
	C67.692368,1.823967 66.488174,3.026178 65.061882,3.416271 
	C33.895710,11.940250 13.810862,31.863455 3.988244,62.453880 
	C3.399317,64.287956 2.455497,66.008080 1.338408,67.890610 
	C1.000000,45.739277 1.000000,23.478554 1.000000,1.000000 
	C23.353756,1.000000 45.708221,1.000000 68.531342,1.000000 
z"/>
<path fill="#000000" opacity="1.000000" stroke="none" 
	d="
M445.468658,513.000000 
	C446.307617,512.176025 447.511810,510.973846 448.938141,510.583740 
	C480.104279,502.059784 500.189178,482.136627 510.011719,451.546143 
	C510.600677,449.712067 511.544464,447.991943 512.661621,446.109406 
	C513.000000,468.260712 513.000000,490.521454 513.000000,513.000000 
	C490.646240,513.000000 468.291779,513.000000 445.468658,513.000000 
z"/>
<path fill="#E974E9" opacity="1.000000" stroke="none" 
	d="
M371.976776,130.165253 
	C380.548065,129.144272 386.672974,133.020218 391.102478,139.964371 
	C401.221954,155.828812 399.195770,180.152100 386.267700,191.125885 
	C383.046265,193.860336 377.985260,195.673981 373.733978,195.744202 
	C348.262085,196.164963 322.779724,195.952835 297.300873,195.952835 
	C295.503693,195.952850 293.706512,195.952850 291.349426,195.952850 
	C291.349426,212.363632 291.349426,228.303085 290.753174,244.628815 
	C269.187683,245.030457 248.218430,245.045837 226.782867,245.036255 
	C222.767410,245.007034 219.218277,245.002777 215.669159,244.998505 
	C215.557846,231.064453 215.444321,217.130432 215.337524,203.196350 
	C215.321014,201.042068 215.335236,198.887543 215.335236,195.926102 
	C212.086487,195.926102 209.016464,195.926102 205.759735,195.638672 
	C207.398788,194.565384 209.198074,193.709671 211.054749,193.005188 
	C221.609421,189.000397 232.205948,185.104507 242.734055,181.031525 
	C254.806061,176.361267 266.814514,171.527084 278.863525,166.797058 
	C290.308807,162.304031 301.768738,157.848114 313.226074,153.385864 
	C325.125793,148.751297 337.045563,144.167755 348.927032,139.486938 
	C356.637665,136.449234 364.295380,133.277130 371.976776,130.165253 
z"/>
<path fill="#DB8FEA" opacity="1.000000" stroke="none" 
	d="
M371.514771,130.093781 
	C364.295380,133.277130 356.637665,136.449234 348.927032,139.486938 
	C337.045563,144.167755 325.125793,148.751297 313.226074,153.385864 
	C301.768738,157.848114 290.308807,162.304031 278.863525,166.797058 
	C266.814514,171.527084 254.806061,176.361267 242.734055,181.031525 
	C232.205948,185.104507 221.609421,189.000397 211.054749,193.005188 
	C209.198074,193.709671 207.398788,194.565384 205.305420,195.560394 
	C196.011902,195.821304 186.985947,195.873062 177.666595,195.569626 
	C178.011826,194.249893 178.533051,193.177277 179.306641,192.336990 
	C192.063583,178.480576 204.892502,164.690262 217.616684,150.803940 
	C223.841797,144.010284 229.885361,137.050293 236.011093,130.165588 
	C265.077820,130.110367 294.144501,130.042511 323.211273,130.004944 
	C339.158417,129.984344 355.105591,130.014832 371.514771,130.093781 
z"/>
<path fill="#0BE2E8" opacity="1.000000" stroke="none" 
	d="
M215.537506,245.450317 
	C219.218277,245.002777 222.767410,245.007034 227.015320,245.278595 
	C233.523514,247.835770 239.334732,250.121063 245.141983,252.416443 
	C260.436188,258.461578 275.728638,264.511139 291.021790,270.558929 
	C291.101196,277.298492 291.180603,284.038086 290.938904,291.531860 
	C287.675110,300.869049 284.732422,309.452057 281.334290,318.028351 
	C259.134735,317.990082 237.390640,317.958496 215.646545,317.926910 
	C215.542374,301.703918 215.415161,285.481049 215.344055,269.257935 
	C215.309921,261.472900 215.381912,253.687393 215.537506,245.450317 
z"/>
<path fill="#01A1E5" opacity="1.000000" stroke="none" 
	d="
M215.526733,318.385315 
	C237.390640,317.958496 259.134735,317.990082 281.232697,318.374939 
	C275.961945,336.294098 270.315155,353.852936 264.721588,371.428680 
	C261.700867,380.920135 258.771057,390.440521 255.800247,399.947876 
	C243.822037,400.561584 232.344757,398.961578 222.080338,392.179718 
	C218.010864,389.490967 215.285156,386.009369 215.304459,380.785309 
	C215.380783,360.138245 215.379440,339.490906 215.526733,318.385315 
z"/>
<path fill="#EA76BF" opacity="1.000000" stroke="none" 
	d="
M235.546600,130.095490 
	C229.885361,137.050293 223.841797,144.010284 217.616684,150.803940 
	C204.892502,164.690262 192.063583,178.480576 179.306641,192.336990 
	C178.533051,193.177277 178.011826,194.249893 177.206024,195.492752 
	C170.353729,195.817642 163.668579,195.864197 156.520538,195.381073 
	C156.058197,173.293076 156.058746,151.734787 156.059311,130.176483 
	C182.400253,130.126114 208.741180,130.075745 235.546600,130.095490 
z"/>
<path fill="#E9699A" opacity="1.000000" stroke="none" 
	d="
M155.590393,130.103088 
	C156.058746,151.734787 156.058197,173.293076 156.061737,195.304581 
	C148.904785,195.821838 141.700607,196.404587 134.594101,195.813293 
	C126.455605,195.136154 119.938850,190.899490 115.737709,183.765305 
	C107.230888,169.319382 108.533516,150.634476 119.047859,137.806702 
	C123.235001,132.698288 129.232773,130.486221 135.630325,130.089081 
	C142.103653,129.687225 148.622528,130.019165 155.590393,130.103088 
z"/>
<path fill="#57B3E9" opacity="1.000000" stroke="none" 
	d="
M256.267517,400.029816 
	C258.771057,390.440521 261.700867,380.920135 264.721588,371.428680 
	C270.315155,353.852936 275.961945,336.294098 281.688110,318.381653 
	C284.732422,309.452057 287.675110,300.869049 290.846039,291.970520 
	C291.184814,301.143250 291.365967,310.631348 291.391022,320.119812 
	C291.441193,339.117981 290.955994,358.131561 291.596893,377.108215 
	C291.914520,386.513062 287.801910,392.316162 279.853180,395.062042 
	C272.449127,397.619781 264.464050,398.495544 256.267517,400.029816 
z"/>
<path fill="#C445FA" opacity="1.000000" stroke="none" 
	d="
M291.170471,270.073181 
	C275.728638,264.511139 260.436188,258.461578 245.141983,252.416443 
	C239.334732,250.121063 233.523514,247.835770 227.481644,245.303543 
	C248.218430,245.045837 269.187683,245.030457 290.632629,245.019363 
	C291.178589,253.211594 291.248871,261.399536 291.170471,270.073181 
z"/>
</svg>