<?xml version="1.0" standalone="no"?>
<!DOCTYPE svg PUBLIC "-//W3C//DTD SVG 20010904//EN"
        "http://www.w3.org/TR/2001/REC-SVG-20010904/DTD/svg10.dtd">
<svg version="1.0" xmlns="http://www.w3.org/2000/svg"
     width="500.000000pt" height="250.000000pt" viewBox="0 0 500.000000 250.000000"
     preserveAspectRatio="xMidYMid meet">

    <g transform="translate(0.000000,250.000000) scale(0.100000,-0.100000)"
       fill="#000000" stroke="none">
        <path d="M1903 1959 c-50 -25 -71 -55 -79 -113 -9 -60 24 -118 81 -146 51 -25
78 -25 132 0 54 24 83 70 83 130 0 60 -29 106 -83 130 -54 25 -82 25 -134 -1z"/>
        <path d="M620 1790 l0 -120 203 -2 202 -3 3 -582 2 -583 145 0 145 0 0 585 0
585 205 0 205 0 0 120 0 120 -555 0 -555 0 0 -120z"/>
        <path d="M2827 1560 c-85 -22 -172 -89 -198 -153 -13 -31 -26 -47 -42 -47 -4
0 -6 42 -5 93 l3 92 -137 3 -138 3 0 -696 0 -695 141 0 142 0 -6 260 c-4 221
-3 260 9 260 8 0 18 -8 21 -17 42 -114 195 -194 343 -179 136 14 252 99 315
231 46 96 59 169 59 315 0 255 -84 424 -248 501 -70 33 -190 46 -259 29z m93
-245 c159 -82 180 -433 33 -554 -107 -88 -270 -46 -337 86 -9 18 -21 68 -28
111 -26 187 51 347 180 373 45 9 118 1 152 -16z"/>
        <path d="M3769 1555 c-144 -29 -254 -115 -285 -223 -23 -77 -14 -167 20 -226
54 -92 132 -133 338 -177 209 -44 248 -66 248 -139 0 -73 -114 -124 -226 -101
-70 13 -96 32 -125 86 l-24 45 -137 0 -136 0 13 -55 c21 -92 86 -174 175 -220
88 -45 157 -59 285 -59 104 0 130 4 199 27 176 61 256 160 256 316 0 80 -25
137 -83 186 -51 44 -119 69 -266 101 -238 51 -271 68 -271 138 0 54 26 89 78
104 105 32 201 -1 241 -80 l23 -48 128 0 129 0 -6 38 c-8 57 -59 157 -100 193
-106 92 -294 130 -474 94z"/>
        <path d="M1830 1025 l0 -525 140 0 140 0 0 525 0 525 -140 0 -140 0 0 -525z"/>
    </g>
</svg>
