<?xml version="1.0" encoding="UTF-8"?>
<!DOCTYPE svg PUBLIC "-//W3C//DTD SVG 1.1//EN" "http://www.w3.org/Graphics/SVG/1.1/DTD/svg11.dtd">
<svg xmlns="http://www.w3.org/2000/svg" version="1.1" width="512px" height="512px" style="shape-rendering:geometricPrecision; text-rendering:geometricPrecision; image-rendering:optimizeQuality; fill-rule:evenodd; clip-rule:evenodd" xmlns:xlink="http://www.w3.org/1999/xlink">
<g><path style="opacity:1" fill="#333333" d="M 241.5,55.5 C 309.861,52.945 366.361,77.2783 411,128.5C 457.569,189.251 468.235,255.918 443,328.5C 410.224,404.166 352.724,446.666 270.5,456C 202.117,459.045 145.617,434.878 101,383.5C 54.4313,322.749 43.7646,256.082 69,183.5C 101.997,107.908 159.497,65.2418 241.5,55.5 Z M 184.5,162.5 C 217.855,162.091 251.188,162.591 284.5,164C 300.072,164.627 313.239,170.46 324,181.5C 334.871,198.2 335.204,215.2 325,232.5C 319.323,239.518 312.489,245.018 304.5,249C 338.862,258.399 352.029,280.565 344,315.5C 335.887,337.169 320.387,350.335 297.5,355C 290.578,356.543 283.578,357.543 276.5,358C 245.835,358.5 215.168,358.667 184.5,358.5C 184.5,293.167 184.5,227.833 184.5,162.5 Z"/></g>
<g><path style="opacity:1" fill="#343434" d="M 227.5,193.5 C 240.504,193.333 253.504,193.5 266.5,194C 280.312,194.646 287.645,201.813 288.5,215.5C 287.628,231.205 279.295,239.371 263.5,240C 251.505,240.5 239.505,240.667 227.5,240.5C 227.5,224.833 227.5,209.167 227.5,193.5 Z"/></g>
<g><path style="opacity:1" fill="#343434" d="M 227.5,269.5 C 239.505,269.333 251.505,269.5 263.5,270C 273.72,269.535 283.387,271.535 292.5,276C 301.102,284.5 303.935,294.666 301,306.5C 298.167,316 292,322.167 282.5,325C 279.211,325.882 275.877,326.548 272.5,327C 257.504,327.5 242.504,327.667 227.5,327.5C 227.5,308.167 227.5,288.833 227.5,269.5 Z"/></g>
</svg>
