<?xml version="1.0" encoding="UTF-8"?>
<!DOCTYPE svg PUBLIC "-//W3C//DTD SVG 1.1//EN" "http://www.w3.org/Graphics/SVG/1.1/DTD/svg11.dtd">
<svg xmlns="http://www.w3.org/2000/svg" version="1.1" width="512px" height="512px"
     style="shape-rendering:geometricPrecision; text-rendering:geometricPrecision; image-rendering:optimizeQuality; fill-rule:evenodd; clip-rule:evenodd"
     xmlns:xlink="http://www.w3.org/1999/xlink">
    <g>
        <path style="opacity:1" fill="#323332"
              d="M 241.5,55.5 C 309.861,52.945 366.361,77.2783 411,128.5C 457.569,189.251 468.235,255.918 443,328.5C 410.224,404.166 352.724,446.666 270.5,456C 202.117,459.045 145.617,434.878 101,383.5C 54.4313,322.749 43.7646,256.082 69,183.5C 101.997,107.908 159.497,65.2418 241.5,55.5 Z M 144.5,180.5 C 158.093,180.698 163.26,187.365 160,200.5C 152.047,209.823 144.047,209.823 136,200.5C 133.069,191.364 135.902,184.698 144.5,180.5 Z M 198.5,181.5 C 253.521,181.043 308.521,181.543 363.5,183C 366.007,183.093 368.174,183.926 370,185.5C 370.667,190.5 370.667,195.5 370,200.5C 368.509,202.004 366.676,202.837 364.5,203C 360.5,203.333 356.5,203.667 352.5,204C 297.814,204.952 243.148,204.619 188.5,203C 185.993,202.907 183.826,202.074 182,200.5C 181.333,195.5 181.333,190.5 182,185.5C 182.5,185 183,184.5 183.5,184C 188.643,183.162 193.643,182.328 198.5,181.5 Z M 144.5,244.5 C 158.093,244.698 163.26,251.365 160,264.5C 152.047,273.823 144.047,273.823 136,264.5C 133.069,255.364 135.902,248.698 144.5,244.5 Z M 198.5,245.5 C 253.521,245.043 308.521,245.543 363.5,247C 366.007,247.093 368.174,247.926 370,249.5C 370.667,254.5 370.667,259.5 370,264.5C 368.509,266.004 366.676,266.837 364.5,267C 360.5,267.333 356.5,267.667 352.5,268C 297.814,268.952 243.148,268.619 188.5,267C 185.993,266.907 183.826,266.074 182,264.5C 181.333,259.5 181.333,254.5 182,249.5C 182.5,249 183,248.5 183.5,248C 188.643,247.162 193.643,246.328 198.5,245.5 Z M 144.5,306.5 C 158.093,306.698 163.26,313.365 160,326.5C 152.047,335.823 144.047,335.823 136,326.5C 133.069,317.364 135.902,310.698 144.5,306.5 Z M 198.5,307.5 C 253.521,307.043 308.521,307.543 363.5,309C 366.007,309.093 368.174,309.926 370,311.5C 370.667,316.5 370.667,321.5 370,326.5C 368.509,328.004 366.676,328.837 364.5,329C 360.5,329.333 356.5,329.667 352.5,330C 297.814,330.952 243.148,330.619 188.5,329C 185.993,328.907 183.826,328.074 182,326.5C 181.333,321.5 181.333,316.5 182,311.5C 182.5,311 183,310.5 183.5,310C 188.643,309.162 193.643,308.328 198.5,307.5 Z"/>
    </g>
</svg>
