<?xml version="1.0" encoding="UTF-8"?>
<!DOCTYPE svg PUBLIC "-//W3C//DTD SVG 1.1//EN" "http://www.w3.org/Graphics/SVG/1.1/DTD/svg11.dtd">
<svg xmlns="http://www.w3.org/2000/svg" version="1.1" width="512px" height="512px" style="shape-rendering:geometricPrecision; text-rendering:geometricPrecision; image-rendering:optimizeQuality; fill-rule:evenodd; clip-rule:evenodd" xmlns:xlink="http://www.w3.org/1999/xlink">
<g><path style="opacity:1" fill="#323332" d="M 241.5,55.5 C 309.861,52.945 366.361,77.2783 411,128.5C 457.569,189.251 468.235,255.918 443,328.5C 410.224,404.166 352.724,446.666 270.5,456C 202.117,459.045 145.617,434.878 101,383.5C 54.4313,322.749 43.7646,256.082 69,183.5C 101.997,107.908 159.497,65.2418 241.5,55.5 Z M 144.5,160.5 C 165.048,170.107 185.381,180.274 205.5,191C 207.007,191.837 207.507,193.004 207,194.5C 187.404,205.382 167.571,215.882 147.5,226C 146.5,226.667 145.5,226.667 144.5,226C 143.172,204.167 143.172,182.333 144.5,160.5 Z M 219.5,178.5 C 270.5,178.5 321.5,178.5 372.5,178.5C 372.5,188.167 372.5,197.833 372.5,207.5C 321.5,207.5 270.5,207.5 219.5,207.5C 219.5,197.833 219.5,188.167 219.5,178.5 Z M 142.5,247.5 C 218.833,247.5 295.167,247.5 371.5,247.5C 371.5,256.5 371.5,265.5 371.5,274.5C 295.167,274.5 218.833,274.5 142.5,274.5C 142.5,265.5 142.5,256.5 142.5,247.5 Z M 141.5,312.5 C 218.167,312.5 294.833,312.5 371.5,312.5C 371.5,321.167 371.5,329.833 371.5,338.5C 294.833,338.5 218.167,338.5 141.5,338.5C 141.5,329.833 141.5,321.167 141.5,312.5 Z"/></g>
</svg>
