<?xml version="1.0" encoding="UTF-8"?>
<!DOCTYPE svg PUBLIC "-//W3C//DTD SVG 1.1//EN" "http://www.w3.org/Graphics/SVG/1.1/DTD/svg11.dtd">
<svg xmlns="http://www.w3.org/2000/svg" version="1.1" width="512px" height="512px"
     style="shape-rendering:geometricPrecision; text-rendering:geometricPrecision; image-rendering:optimizeQuality; fill-rule:evenodd; clip-rule:evenodd"
     xmlns:xlink="http://www.w3.org/1999/xlink">
    <g>
        <path style="opacity:1" fill="#333333"
              d="M 241.5,55.5 C 309.861,52.945 366.361,77.2783 411,128.5C 457.569,189.251 468.235,255.918 443,328.5C 410.224,404.166 352.724,446.666 270.5,456C 202.117,459.045 145.617,434.878 101,383.5C 54.4313,322.749 43.7646,256.082 69,183.5C 101.997,107.908 159.497,65.2418 241.5,55.5 Z M 253.5,258.5 C 228.339,257.502 203.005,257.169 177.5,257.5C 177.5,281.833 177.5,306.167 177.5,330.5C 171.5,330.5 165.5,330.5 159.5,330.5C 159.5,281.5 159.5,232.5 159.5,183.5C 165.5,183.5 171.5,183.5 177.5,183.5C 177.174,203.076 177.507,222.576 178.5,242C 203.498,242.5 228.498,242.667 253.5,242.5C 253.5,222.833 253.5,203.167 253.5,183.5C 259.833,183.5 266.167,183.5 272.5,183.5C 272.5,232.5 272.5,281.5 272.5,330.5C 266.167,330.5 259.833,330.5 253.5,330.5C 253.5,306.5 253.5,282.5 253.5,258.5 Z M 335.5,236.5 C 339.767,236.203 343.934,236.536 348,237.5C 348.5,264.498 348.667,291.498 348.5,318.5C 354.842,318.334 361.175,318.5 367.5,319C 368.46,322.73 368.793,326.563 368.5,330.5C 349.833,330.5 331.167,330.5 312.5,330.5C 312.5,326.5 312.5,322.5 312.5,318.5C 319.167,318.5 325.833,318.5 332.5,318.5C 332.5,299.167 332.5,279.833 332.5,260.5C 325.833,260.5 319.167,260.5 312.5,260.5C 312.5,256.833 312.5,253.167 312.5,249.5C 317.913,249.771 323.246,249.271 328.5,248C 332.998,245.506 335.332,241.673 335.5,236.5 Z"/>
    </g>
    <g>
        <path style="opacity:1" fill="#6c6c6c"
              d="M 253.5,258.5 C 228.5,258.5 203.5,258.5 178.5,258.5C 178.831,282.672 178.498,306.672 177.5,330.5C 178.498,306.672 178.831,282.672 178.5,258.5C 203.5,258.5 228.5,258.5 253.5,258.5 Z"/>
    </g>
</svg>
