<?xml version="1.0" encoding="UTF-8"?>
<!DOCTYPE svg PUBLIC "-//W3C//DTD SVG 1.1//EN" "http://www.w3.org/Graphics/SVG/1.1/DTD/svg11.dtd">
<svg xmlns="http://www.w3.org/2000/svg" version="1.1" width="512px" height="512px" style="shape-rendering:geometricPrecision; text-rendering:geometricPrecision; image-rendering:optimizeQuality; fill-rule:evenodd; clip-rule:evenodd" xmlns:xlink="http://www.w3.org/1999/xlink">
<g><path style="opacity:1" fill="#333333" d="M 241.5,55.5 C 309.861,52.945 366.361,77.2783 411,128.5C 457.569,189.251 468.235,255.918 443,328.5C 410.224,404.166 352.724,446.666 270.5,456C 202.117,459.045 145.617,434.878 101,383.5C 54.4313,322.749 43.7646,256.082 69,183.5C 101.997,107.908 159.497,65.2418 241.5,55.5 Z M 248.5,257.5 C 223.339,256.502 198.005,256.169 172.5,256.5C 172.5,280.833 172.5,305.167 172.5,329.5C 166.5,329.5 160.5,329.5 154.5,329.5C 154.5,280.5 154.5,231.5 154.5,182.5C 160.5,182.5 166.5,182.5 172.5,182.5C 172.174,202.076 172.507,221.576 173.5,241C 198.498,241.5 223.498,241.667 248.5,241.5C 248.5,221.833 248.5,202.167 248.5,182.5C 254.833,182.5 261.167,182.5 267.5,182.5C 267.5,231.5 267.5,280.5 267.5,329.5C 261.167,329.5 254.833,329.5 248.5,329.5C 248.5,305.5 248.5,281.5 248.5,257.5 Z M 324.5,234.5 C 336.637,233.223 347.637,236.057 357.5,243C 364.75,251.904 366.25,261.738 362,272.5C 357.43,282.084 350.93,290.251 342.5,297C 334.833,303.333 327.167,309.667 319.5,316C 335.83,316.5 352.163,316.667 368.5,316.5C 368.5,320.833 368.5,325.167 368.5,329.5C 345.49,329.833 322.49,329.5 299.5,328.5C 300.279,323.887 300.779,319.22 301,314.5C 315.222,303.951 328.555,292.285 341,279.5C 346.968,272.93 349.301,265.264 348,256.5C 346.131,251.649 342.631,248.816 337.5,248C 325.132,246.54 313.632,249.04 303,255.5C 302.171,250.467 302.338,245.467 303.5,240.5C 310.409,237.694 317.409,235.694 324.5,234.5 Z"/></g>
<g><path style="opacity:1" fill="#6c6c6c" d="M 248.5,257.5 C 223.5,257.5 198.5,257.5 173.5,257.5C 173.831,281.672 173.498,305.672 172.5,329.5C 173.498,305.672 173.831,281.672 173.5,257.5C 198.5,257.5 223.5,257.5 248.5,257.5 Z"/></g>
</svg>
