<?xml version="1.0" encoding="UTF-8"?>
<!DOCTYPE svg PUBLIC "-//W3C//DTD SVG 1.1//EN" "http://www.w3.org/Graphics/SVG/1.1/DTD/svg11.dtd">
<svg xmlns="http://www.w3.org/2000/svg" version="1.1" width="512px" height="512px"
     style="shape-rendering:geometricPrecision; text-rendering:geometricPrecision; image-rendering:optimizeQuality; fill-rule:evenodd; clip-rule:evenodd"
     xmlns:xlink="http://www.w3.org/1999/xlink">
    <g>
        <path style="opacity:1" fill="#323332"
              d="M 241.5,55.5 C 309.861,52.945 366.361,77.2783 411,128.5C 457.569,189.251 468.235,255.918 443,328.5C 410.224,404.166 352.724,446.666 270.5,456C 202.117,459.045 145.617,434.878 101,383.5C 54.4313,322.749 43.7646,256.082 69,183.5C 101.997,107.908 159.497,65.2418 241.5,55.5 Z M 312.5,125.5 C 313.552,125.351 314.552,125.517 315.5,126C 329.134,137.966 342.467,150.299 355.5,163C 357.921,165.094 360.588,166.76 363.5,168C 364.517,169.049 364.684,170.216 364,171.5C 308.138,227.029 251.972,282.195 195.5,337C 179.833,337.667 164.167,337.667 148.5,337C 147.343,321.574 147.176,306.074 148,290.5C 201.974,236.193 256.307,182.193 311,128.5C 311.513,127.473 312.013,126.473 312.5,125.5 Z M 142.5,348.5 C 220.167,348.5 297.833,348.5 375.5,348.5C 375.5,357.833 375.5,367.167 375.5,376.5C 297.833,376.5 220.167,376.5 142.5,376.5C 142.5,367.167 142.5,357.833 142.5,348.5 Z"/>
    </g>
    <g>
        <path style="opacity:1" fill="#323332"
              d="M 313.5,132.5 C 315.595,133.412 317.595,134.579 319.5,136C 331.866,148.035 344.533,159.701 357.5,171C 302.711,224.156 248.211,277.656 194,331.5C 180.859,318.271 167.526,305.271 154,292.5C 153.333,291.833 153.333,291.167 154,290.5C 207.367,237.966 260.534,185.299 313.5,132.5 Z"/>
    </g>
    <g>
        <path style="opacity:1" fill="#323332"
              d="M 152.5,298.5 C 164.134,309.66 175.801,320.826 187.5,332C 182.5,332.667 177.5,332.667 172.5,332C 166,325.5 159.5,319 153,312.5C 152.501,307.845 152.334,303.179 152.5,298.5 Z"/>
    </g>
</svg>
