<?xml version="1.0" encoding="UTF-8"?>
<!DOCTYPE svg PUBLIC "-//W3C//DTD SVG 1.1//EN" "http://www.w3.org/Graphics/SVG/1.1/DTD/svg11.dtd">
<svg xmlns="http://www.w3.org/2000/svg" version="1.1" width="512px" height="512px"
     style="shape-rendering:geometricPrecision; text-rendering:geometricPrecision; image-rendering:optimizeQuality; fill-rule:evenodd; clip-rule:evenodd"
     xmlns:xlink="http://www.w3.org/1999/xlink">
    <g>
        <path style="opacity:1" fill="none"
              d="M -0.5,-0.5 C 170.167,-0.5 340.833,-0.5 511.5,-0.5C 511.5,170.167 511.5,340.833 511.5,511.5C 340.833,511.5 170.167,511.5 -0.5,511.5C -0.5,340.833 -0.5,170.167 -0.5,-0.5 Z"/>
    </g>
    <g>
        <path style="opacity:1" fill="#323332"
              d="M 241.5,55.5 C 309.861,52.945 366.361,77.2783 411,128.5C 457.569,189.251 468.235,255.918 443,328.5C 410.224,404.166 352.724,446.666 270.5,456C 202.117,459.045 145.617,434.878 101,383.5C 54.4313,322.749 43.7646,256.082 69,183.5C 101.997,107.908 159.497,65.2418 241.5,55.5 Z"/>
    </g>
    <g>
        <path style="opacity:1" fill="#fefffe"
              d="M 167.5,163.5 C 226.501,163.333 285.501,163.5 344.5,164C 358.552,165.106 369.719,171.273 378,182.5C 380.479,186.123 381.812,190.123 382,194.5C 382.667,237.5 382.667,280.5 382,323.5C 380.086,335.081 373.92,343.581 363.5,349C 358.067,351.442 352.4,353.108 346.5,354C 285.833,354.667 225.167,354.667 164.5,354C 151.698,352.023 141.532,345.856 134,335.5C 132.601,332.637 131.601,329.637 131,326.5C 130.333,281.5 130.333,236.5 131,191.5C 134.798,178.368 143.298,169.868 156.5,166C 160.347,165.367 164.014,164.533 167.5,163.5 Z"/>
    </g>
    <g>
        <path style="opacity:1" fill="#323332"
              d="M 166.5,168.5 C 225.834,168.333 285.168,168.5 344.5,169C 356.957,169.975 366.79,175.475 374,185.5C 375.75,188.246 376.75,191.246 377,194.5C 377.667,237.5 377.667,280.5 377,323.5C 375.941,330.784 372.441,336.617 366.5,341C 364.633,341.711 363.133,341.211 362,339.5C 343.55,314.715 324.716,290.215 305.5,266C 302.72,265.731 300.554,266.898 299,269.5C 288.029,282.971 276.529,295.971 264.5,308.5C 252.128,294.292 240.295,279.625 229,264.5C 227.281,262.443 225.281,260.776 223,259.5C 221.739,259.759 220.739,260.426 220,261.5C 197.993,289.668 175.827,317.668 153.5,345.5C 144.709,341.877 138.876,335.543 136,326.5C 135.333,281.833 135.333,237.167 136,192.5C 138.333,183.34 143.833,176.84 152.5,173C 157.184,171.17 161.851,169.67 166.5,168.5 Z"/>
    </g>
    <g>
        <path style="opacity:1" fill="#fefffe"
              d="M 312.5,198.5 C 331.138,198.637 339.972,207.97 339,226.5C 334.613,239.78 325.447,245.613 311.5,244C 298.532,239.902 292.699,231.069 294,217.5C 296.348,207.32 302.515,200.987 312.5,198.5 Z"/>
    </g>
    <g>
        <path style="opacity:1" fill="#323332"
              d="M 222.5,266.5 C 226.429,269.634 229.929,273.301 233,277.5C 251.807,301.608 270.973,325.441 290.5,349C 248.5,349.667 206.5,349.667 164.5,349C 162.899,348.727 161.399,348.227 160,347.5C 160.398,345.369 161.398,343.369 163,341.5C 183.323,316.834 203.157,291.834 222.5,266.5 Z"/>
    </g>
    <g>
        <path style="opacity:1" fill="#323332"
              d="M 303.5,271.5 C 322.389,295.585 341.055,319.918 359.5,344.5C 355.476,346.76 351.142,348.26 346.5,349C 329.833,349.667 313.167,349.667 296.5,349C 287.073,336.817 277.407,324.817 267.5,313C 280.083,299.59 292.083,285.757 303.5,271.5 Z"/>
    </g>
</svg>
