<?xml version="1.0" encoding="UTF-8"?>
<!DOCTYPE svg PUBLIC "-//W3C//DTD SVG 1.1//EN" "http://www.w3.org/Graphics/SVG/1.1/DTD/svg11.dtd">
<svg xmlns="http://www.w3.org/2000/svg" version="1.1" width="512px" height="512px"
     style="shape-rendering:geometricPrecision; text-rendering:geometricPrecision; image-rendering:optimizeQuality; fill-rule:evenodd; clip-rule:evenodd"
     xmlns:xlink="http://www.w3.org/1999/xlink">
    <g>
        <path style="opacity:1" fill="#333333"
              d="M 241.5,55.5 C 309.861,52.945 366.361,77.2783 411,128.5C 457.569,189.251 468.235,255.918 443,328.5C 410.224,404.166 352.724,446.666 270.5,456C 202.117,459.045 145.617,434.878 101,383.5C 54.4313,322.749 43.7646,256.082 69,183.5C 101.997,107.908 159.497,65.2418 241.5,55.5 Z M 246.5,337.5 C 245.596,338.209 245.263,339.209 245.5,340.5C 253.833,340.5 262.167,340.5 270.5,340.5C 269.712,346.15 268.379,351.65 266.5,357C 242.169,357.5 217.836,357.667 193.5,357.5C 193.375,351.797 193.708,346.13 194.5,340.5C 203.418,340.817 212.251,340.484 221,339.5C 233.273,285.911 245.773,232.411 258.5,179C 249.814,178.832 241.148,178.332 232.5,177.5C 233.676,172.461 235.01,167.461 236.5,162.5C 261.827,161.334 287.16,161.167 312.5,162C 310.852,167.404 309.518,172.904 308.5,178.5C 299.833,178.5 291.167,178.5 282.5,178.5C 270.244,231.448 258.244,284.448 246.5,337.5 Z"/>
    </g>
</svg>
