<?xml version="1.0" encoding="UTF-8"?>
<!DOCTYPE svg PUBLIC "-//W3C//DTD SVG 1.1//EN" "http://www.w3.org/Graphics/SVG/1.1/DTD/svg11.dtd">
<svg xmlns="http://www.w3.org/2000/svg" version="1.1" width="512px" height="512px"
     style="shape-rendering:geometricPrecision; text-rendering:geometricPrecision; image-rendering:optimizeQuality; fill-rule:evenodd; clip-rule:evenodd"
     xmlns:xlink="http://www.w3.org/1999/xlink">
    <g>
        <path style="opacity:1" fill="#333333"
              d="M 241.5,55.5 C 309.861,52.945 366.361,77.2783 411,128.5C 457.569,189.251 468.235,255.918 443,328.5C 410.224,404.166 352.724,446.666 270.5,456C 202.117,459.045 145.617,434.878 101,383.5C 54.4313,322.749 43.7646,256.082 69,183.5C 101.997,107.908 159.497,65.2418 241.5,55.5 Z M 148.5,180.5 C 150.167,180.5 151.833,180.5 153.5,180.5C 153.5,187.5 153.5,194.5 153.5,201.5C 155.167,201.5 156.833,201.5 158.5,201.5C 158.5,202.833 158.5,204.167 158.5,205.5C 153.167,205.5 147.833,205.5 142.5,205.5C 142.5,204.167 142.5,202.833 142.5,201.5C 144.167,201.5 145.833,201.5 147.5,201.5C 147.5,196.5 147.5,191.5 147.5,186.5C 145.833,186.5 144.167,186.5 142.5,186.5C 142.5,185.5 142.5,184.5 142.5,183.5C 145.313,183.975 147.313,182.975 148.5,180.5 Z M 198.5,181.5 C 253.521,181.043 308.521,181.543 363.5,183C 366.007,183.093 368.174,183.926 370,185.5C 370.667,190.5 370.667,195.5 370,200.5C 368.509,202.004 366.676,202.837 364.5,203C 360.5,203.333 356.5,203.667 352.5,204C 297.814,204.952 243.148,204.619 188.5,203C 185.993,202.907 183.826,202.074 182,200.5C 181.333,195.5 181.333,190.5 182,185.5C 182.5,185 183,184.5 183.5,184C 188.643,183.162 193.643,182.328 198.5,181.5 Z M 142.5,244.5 C 145.85,244.335 149.183,244.502 152.5,245C 157.453,247.64 158.62,251.473 156,256.5C 153.537,259.965 150.704,263.131 147.5,266C 151.152,266.499 154.818,266.665 158.5,266.5C 158.5,267.5 158.5,268.5 158.5,269.5C 152.167,269.5 145.833,269.5 139.5,269.5C 139.343,268.127 139.51,266.793 140,265.5C 145.326,262.181 149.159,257.681 151.5,252C 151.561,250.289 150.894,248.956 149.5,248C 146.623,247.275 143.957,247.775 141.5,249.5C 140.316,247.533 140.649,245.866 142.5,244.5 Z M 198.5,245.5 C 253.521,245.043 308.521,245.543 363.5,247C 366.007,247.093 368.174,247.926 370,249.5C 370.667,254.5 370.667,259.5 370,264.5C 368.509,266.004 366.676,266.837 364.5,267C 360.5,267.333 356.5,267.667 352.5,268C 297.814,268.952 243.148,268.619 188.5,267C 185.993,266.907 183.826,266.074 182,264.5C 181.333,259.5 181.333,254.5 182,249.5C 182.5,249 183,248.5 183.5,248C 188.643,247.162 193.643,246.328 198.5,245.5 Z M 142.5,307.5 C 145.85,307.335 149.183,307.502 152.5,308C 158.837,311.036 159.17,314.703 153.5,319C 157.292,321.053 158.458,324.219 157,328.5C 154.464,331.766 151.131,333.1 147,332.5C 144.775,332.435 142.608,332.102 140.5,331.5C 139.167,330.167 139.167,328.833 140.5,327.5C 144.761,330.477 148.594,330.144 152,326.5C 152.668,321.671 150.501,319.671 145.5,320.5C 145.5,319.5 145.5,318.5 145.5,317.5C 150.327,318.152 152.16,316.152 151,311.5C 147.547,310.184 144.214,310.517 141,312.5C 140.36,310.457 140.86,308.79 142.5,307.5 Z M 198.5,307.5 C 253.521,307.043 308.521,307.543 363.5,309C 366.007,309.093 368.174,309.926 370,311.5C 370.667,316.5 370.667,321.5 370,326.5C 368.509,328.004 366.676,328.837 364.5,329C 360.5,329.333 356.5,329.667 352.5,330C 297.814,330.952 243.148,330.619 188.5,329C 185.993,328.907 183.826,328.074 182,326.5C 181.333,321.5 181.333,316.5 182,311.5C 182.5,311 183,310.5 183.5,310C 188.643,309.162 193.643,308.328 198.5,307.5 Z"/>
    </g>
</svg>
