<?xml version="1.0" encoding="UTF-8"?>
<!DOCTYPE svg PUBLIC "-//W3C//DTD SVG 1.1//EN" "http://www.w3.org/Graphics/SVG/1.1/DTD/svg11.dtd">
<svg xmlns="http://www.w3.org/2000/svg" version="1.1" width="512px" height="512px"
     style="shape-rendering:geometricPrecision; text-rendering:geometricPrecision; image-rendering:optimizeQuality; fill-rule:evenodd; clip-rule:evenodd"
     xmlns:xlink="http://www.w3.org/1999/xlink">
    <g>
        <path style="opacity:1" fill="#333333"
              d="M 241.5,55.5 C 309.861,52.945 366.361,77.2783 411,128.5C 457.569,189.251 468.235,255.918 443,328.5C 410.224,404.166 352.724,446.666 270.5,456C 202.117,459.045 145.617,434.878 101,383.5C 54.4313,322.749 43.7646,256.082 69,183.5C 101.997,107.908 159.497,65.2418 241.5,55.5 Z M 251.5,155.5 C 275.548,155.429 298.548,160.263 320.5,170C 321.485,179.417 321.818,188.917 321.5,198.5C 314.025,193.899 306.358,189.399 298.5,185C 277.058,175.809 255.058,174.143 232.5,180C 215.011,187.145 208.177,199.978 212,218.5C 215.78,227.613 222.28,234.113 231.5,238C 249.495,241.999 267.495,245.999 285.5,250C 291.242,251.803 296.909,253.803 302.5,256C 314.495,256.5 326.495,256.667 338.5,256.5C 338.5,261.167 338.5,265.833 338.5,270.5C 332.491,270.334 326.491,270.501 320.5,271C 335.962,300.818 330.295,325.818 303.5,346C 283.259,357.208 261.592,361.208 238.5,358C 219.81,355.703 201.977,350.537 185,342.5C 184.5,332.839 184.334,323.172 184.5,313.5C 185.552,313.351 186.552,313.517 187.5,314C 216.334,337.956 248.668,344.29 284.5,333C 304.419,321.437 309.252,305.27 299,284.5C 289.995,276.714 279.495,272.214 267.5,271C 234.835,270.5 202.168,270.333 169.5,270.5C 169.5,265.833 169.5,261.167 169.5,256.5C 183.504,256.667 197.504,256.5 211.5,256C 194.379,246.437 185.712,231.771 185.5,212C 185.909,192.176 194.576,177.176 211.5,167C 224.062,160.031 237.395,156.197 251.5,155.5 Z"/>
    </g>
</svg>
