<?xml version="1.0" encoding="UTF-8"?>
<!DOCTYPE svg PUBLIC "-//W3C//DTD SVG 1.1//EN" "http://www.w3.org/Graphics/SVG/1.1/DTD/svg11.dtd">
<svg xmlns="http://www.w3.org/2000/svg" version="1.1" width="512px" height="512px" style="shape-rendering:geometricPrecision; text-rendering:geometricPrecision; image-rendering:optimizeQuality; fill-rule:evenodd; clip-rule:evenodd" xmlns:xlink="http://www.w3.org/1999/xlink">
<g><path style="opacity:1" fill="#323332" d="M 240.5,55.5 C 308.861,52.945 365.361,77.2783 410,128.5C 456.569,189.251 467.235,255.918 442,328.5C 409.224,404.166 351.724,446.666 269.5,456C 201.117,459.045 144.617,434.878 100,383.5C 53.4313,322.749 42.7646,256.082 68,183.5C 100.997,107.908 158.497,65.2418 240.5,55.5 Z M 122.5,187.5 C 208.501,187.333 294.501,187.5 380.5,188C 383.553,189.581 384.22,191.914 382.5,195C 296.5,195.667 210.5,195.667 124.5,195C 121.378,193.245 120.712,190.745 122.5,187.5 Z M 166.5,251.5 C 238.167,251.333 309.834,251.5 381.5,252C 383.887,254.953 383.221,257.286 379.5,259C 307.833,259.667 236.167,259.667 164.5,259C 162.84,255.777 163.506,253.277 166.5,251.5 Z M 212.5,315.5 C 268.501,315.333 324.501,315.5 380.5,316C 383.553,317.581 384.22,319.914 382.5,323C 326.5,323.667 270.5,323.667 214.5,323C 211.378,321.245 210.712,318.745 212.5,315.5 Z"/></g>
</svg>
