<?xml version="1.0" encoding="UTF-8"?>
<!DOCTYPE svg PUBLIC "-//W3C//DTD SVG 1.1//EN" "http://www.w3.org/Graphics/SVG/1.1/DTD/svg11.dtd">
<svg xmlns="http://www.w3.org/2000/svg" version="1.1" width="512px" height="512px"
     style="shape-rendering:geometricPrecision; text-rendering:geometricPrecision; image-rendering:optimizeQuality; fill-rule:evenodd; clip-rule:evenodd"
     xmlns:xlink="http://www.w3.org/1999/xlink">
    <g>
        <path style="opacity:1" fill="#323332"
              d="M 241.5,55.5 C 309.861,52.945 366.361,77.2783 411,128.5C 457.569,189.251 468.235,255.918 443,328.5C 410.224,404.166 352.724,446.666 270.5,456C 202.117,459.045 145.617,434.878 101,383.5C 54.4313,322.749 43.7646,256.082 69,183.5C 101.997,107.908 159.497,65.2418 241.5,55.5 Z M 129.5,185.5 C 213.501,185.333 297.501,185.5 381.5,186C 383.22,189.086 382.553,191.419 379.5,193C 295.5,193.667 211.5,193.667 127.5,193C 125.84,189.777 126.506,187.277 129.5,185.5 Z M 177.5,251.5 C 229.168,251.333 280.834,251.5 332.5,252C 336.439,252.977 337.439,255.311 335.5,259C 282.167,259.667 228.833,259.667 175.5,259C 173.257,255.929 173.923,253.429 177.5,251.5 Z M 129.5,321.5 C 213.167,321.333 296.834,321.5 380.5,322C 384.439,322.977 385.439,325.311 383.5,329C 298.167,329.667 212.833,329.667 127.5,329C 125.257,325.929 125.923,323.429 129.5,321.5 Z"/>
    </g>
</svg>
