<?xml version="1.0" encoding="UTF-8"?>
<!DOCTYPE svg PUBLIC "-//W3C//DTD SVG 1.1//EN" "http://www.w3.org/Graphics/SVG/1.1/DTD/svg11.dtd">
<svg xmlns="http://www.w3.org/2000/svg" version="1.1" width="512px" height="512px" style="shape-rendering:geometricPrecision; text-rendering:geometricPrecision; image-rendering:optimizeQuality; fill-rule:evenodd; clip-rule:evenodd" xmlns:xlink="http://www.w3.org/1999/xlink">
<g><path style="opacity:1" fill="#323332" d="M 241.5,55.5 C 309.861,52.945 366.361,77.2783 411,128.5C 457.569,189.251 468.235,255.918 443,328.5C 410.224,404.166 352.724,446.666 270.5,456C 202.117,459.045 145.617,434.878 101,383.5C 54.4313,322.749 43.7646,256.082 69,183.5C 101.997,107.908 159.497,65.2418 241.5,55.5 Z M 130.5,187.5 C 216.501,187.333 302.501,187.5 388.5,188C 390.22,191.086 389.553,193.419 386.5,195C 300.5,195.667 214.5,195.667 128.5,195C 126.84,191.777 127.506,189.277 130.5,187.5 Z M 129.5,251.5 C 201.167,251.333 272.834,251.5 344.5,252C 347.553,253.581 348.22,255.914 346.5,259C 274.833,259.667 203.167,259.667 131.5,259C 127.624,257.138 126.958,254.638 129.5,251.5 Z M 130.5,315.5 C 186.501,315.333 242.501,315.5 298.5,316C 300.22,319.086 299.553,321.419 296.5,323C 240.5,323.667 184.5,323.667 128.5,323C 126.84,319.777 127.506,317.277 130.5,315.5 Z"/></g>
</svg>
