<?xml version="1.0" encoding="UTF-8"?>
<!DOCTYPE svg PUBLIC "-//W3C//DTD SVG 1.1//EN" "http://www.w3.org/Graphics/SVG/1.1/DTD/svg11.dtd">
<svg xmlns="http://www.w3.org/2000/svg" version="1.1" width="512px" height="512px" style="shape-rendering:geometricPrecision; text-rendering:geometricPrecision; image-rendering:optimizeQuality; fill-rule:evenodd; clip-rule:evenodd" xmlns:xlink="http://www.w3.org/1999/xlink">
<g><path style="opacity:1" fill="#333333" d="M 241.5,55.5 C 309.861,52.945 366.361,77.2783 411,128.5C 457.569,189.251 468.235,255.918 443,328.5C 410.224,404.166 352.724,446.666 270.5,456C 202.117,459.045 145.617,434.878 101,383.5C 54.4313,322.749 43.7646,256.082 69,183.5C 101.997,107.908 159.497,65.2418 241.5,55.5 Z M 178.5,141.5 C 186.5,141.5 194.5,141.5 202.5,141.5C 202.333,185.501 202.5,229.501 203,273.5C 204.742,305.409 221.575,321.409 253.5,321.5C 283.11,321.97 299.944,307.637 304,278.5C 304.5,232.835 304.667,187.168 304.5,141.5C 312.833,141.5 321.167,141.5 329.5,141.5C 328.714,186.489 328.214,231.489 328,276.5C 325.154,312.095 306.32,333.261 271.5,340C 249.013,343.799 227.68,340.466 207.5,330C 188.827,315.151 179.327,295.651 179,271.5C 178.5,228.168 178.333,184.835 178.5,141.5 Z M 156.5,364.5 C 221.5,364.5 286.5,364.5 351.5,364.5C 351.5,369.167 351.5,373.833 351.5,378.5C 286.5,378.5 221.5,378.5 156.5,378.5C 156.5,373.833 156.5,369.167 156.5,364.5 Z"/></g>
</svg>
